<?xml version="1.0" encoding="UTF-8" standalone="no"?>
<!-- Created with Inkscape (http://www.inkscape.org/) -->

<svg
   width="2047.9999"
   height="2047.9999"
   viewBox="0 0 541.86663 541.86663"
   version="1.1"
   id="svg1"
   xmlns="http://www.w3.org/2000/svg"
   xmlns:svg="http://www.w3.org/2000/svg">
  <defs
     id="defs1" />
  <g
     id="layer2"
     style="display:inline"
     transform="matrix(3.8387179,0,0,3.8387179,-136.67277,-131.29212)">
    <g
       id="layer3"
       style="display:inline;opacity:1">
      <g
         id="layer7"
         style="display:inline">
        <path
           style="display:inline;opacity:1;fill:#5ba842;fill-opacity:1;fill-rule:evenodd;stroke-linecap:round;stroke-linejoin:round"
           d="M 107.60437,74.688645 C 87.170561,80.830416 73.870533,66.75293 75.014874,56.390374 c 4.317752,-1.197592 13.729243,-3.717559 22.29449,1.391847 5.458526,3.256164 8.352826,6.902347 10.295006,16.906424 z"
           id="path9" />
        <path
           style="display:inline;opacity:1;fill:#79bb38;fill-opacity:1;fill-rule:evenodd;stroke-linecap:round;stroke-linejoin:round"
           d="M 106.55304,74.820061 C 99.637552,64.481023 87.209269,61.036334 74.554918,57.113162 c 4.317752,-1.197592 14.189199,-4.440347 22.754446,0.669059 5.458526,3.256164 7.301496,7.033763 9.243676,17.03784 z"
           id="path11" />
        <path
           style="display:inline;opacity:1;fill:#0f2c30;fill-rule:evenodd;stroke-linecap:round;stroke-linejoin:round"
           d="m 84.591592,53.144987 c -4.235336,0.14722 -7.589254,0.718634 -9.760001,1.320722 -0.748883,0.207731 -1.860647,1.876232 -1.785415,2.796851 1.055145,12.911735 14.127057,25.316665 35.104704,19.245293 0.93439,-0.280894 1.50418,-1.223806 1.31836,-2.18164 C 107.47622,64.060245 103.89296,59.640619 98.15228,56.216139 93.488687,53.434177 88.826928,52.997767 84.591592,53.144987 Z m 0.679262,3.545762 c 3.691159,-0.134811 7.163923,0.395911 11.065576,2.723354 4.78765,2.85597 7.11594,5.713979 8.93945,13.798828 -17.454911,4.260292 -27.372476,-5.887878 -28.551891,-15.351562 2.064883,-0.539027 5.537333,-1.060705 8.546865,-1.17062 z"
           id="path10" />
      </g>
      <g
         id="path4"
         style="display:inline;opacity:1"
         transform="translate(0.27588376,2.2070702)">
        <path
           style="display:inline;opacity:1;fill:#83573d;fill-rule:evenodd;stroke-linecap:round;stroke-linejoin:round"
           d="m 127.63316,51.427079 c -6.92003,3.306204 -14.17363,11.405753 -15.64631,25.495184 -1.70949,0.468179 -2.6953,0.616828 -4.19389,0.765358 -1.4621,-16.145093 5.09525,-28.500483 15.84347,-32.472692 7.63985,-2.823451 8.96327,3.839271 3.99673,6.21215 z"
           id="path6" />
        <path
           style="display:inline;opacity:1;fill:#0f2c30;fill-rule:evenodd;stroke-linecap:round;stroke-linejoin:round"
           d="m 115.82611,48.253007 c -6.11622,5.622432 -9.0526,13.772773 -9.74681,23.358599 -0.13828,1.909455 -0.3515,4.341275 -0.17891,6.247769 2.89503,-0.104712 5.8702,-1.34874 8.02823,-1.707372 0.27704,-2.438436 0.47075,-3.591481 1.14035,-5.773727 2.08043,-6.780178 5.21014,-12.615847 11.90077,-16.450478 4.51051,-2.585133 7.99559,-6.459673 3.33926,-10.381032 -3.85048,-3.242697 -11.84981,2.285741 -14.48289,4.706241 z m 11.04672,-1.832673 c 1.90534,-0.216725 2.62751,1.623109 1.10072,2.586325 -1.52425,0.961608 -4.06721,2.314591 -5.51397,3.418328 -7.81538,5.962372 -10.85527,14.8123 -12.25879,23.285004 -0.37486,0.07143 -0.36196,1.129474 -0.9215,0.07865 -0.31994,-7.849198 1.87477,-16.310547 6.90826,-22.572719 2.60882,-3.245637 6.59778,-6.330649 10.68528,-6.795586 z"
           id="path7" />
      </g>
    </g>
    <g
       id="path1"
       style="display:inline;opacity:1"
       transform="translate(0.27588376,2.2070702)">
      <path
         style="color:#000000;font-style:normal;font-variant:normal;font-weight:normal;font-stretch:normal;font-size:medium;line-height:normal;font-family:sans-serif;font-variant-ligatures:normal;font-variant-position:normal;font-variant-caps:normal;font-variant-numeric:normal;font-variant-alternates:normal;font-variant-east-asian:normal;font-feature-settings:normal;font-variation-settings:normal;text-indent:0;text-align:start;text-decoration-line:none;text-decoration-style:solid;text-decoration-color:#000000;letter-spacing:normal;word-spacing:normal;text-transform:none;writing-mode:lr-tb;direction:ltr;text-orientation:mixed;dominant-baseline:auto;baseline-shift:baseline;text-anchor:start;white-space:normal;shape-padding:0;shape-margin:0;inline-size:0;clip-rule:nonzero;display:inline;overflow:visible;visibility:visible;isolation:auto;mix-blend-mode:normal;color-interpolation:sRGB;color-interpolation-filters:linearRGB;solid-color:#000000;solid-opacity:1;vector-effect:none;fill:#7abd3c;fill-opacity:1;fill-rule:nonzero;stroke:none;stroke-linecap:butt;stroke-linejoin:miter;stroke-miterlimit:4;stroke-dasharray:none;stroke-dashoffset:0;stroke-opacity:1;-inkscape-stroke:none;color-rendering:auto;image-rendering:auto;shape-rendering:auto;text-rendering:auto;enable-background:accumulate;stop-color:#000000;stop-opacity:1"
         d="m 153.88805,123.88673 c -4.98735,17.59956 -19.83328,34.07591 -32.66986,35.51853 -5.76728,0.64814 -9.5586,-2.35612 -13.71996,-2.32474 -5.04011,0.038 -7.24588,3.39416 -14.859156,2.29074 C 74.738259,156.77683 59.364668,134.13064 57.374322,113.91232 55.155921,91.377378 68.235181,74.917652 85.575447,73.515941 c 10.25664,-0.829102 17.639143,4.726996 22.529863,3.910252 9.70409,-1.62057 13.79922,-5.107623 23.56914,-3.443373 19.801,3.372985 28.7756,26.74765 22.2136,49.90391 z"
         id="path16" />
      <path
         style="fill:#0f2c30"
         d="m 89.388672,71.75 c -1.266713,-0.07531 -2.585278,-0.202926 -3.953125,-0.09236 -18.356218,1.483837 -32.208076,18.884023 -29.916572,42.16156 1.031601,10.47921 5.218304,21.20572 11.737168,29.97315 6.518864,8.76743 15.545589,15.90383 25.134482,17.29359 4.076907,0.59088 6.938967,-0.0431 9.187505,-0.78711 2.24853,-0.74406 3.79615,-1.47021 5.93359,-1.48633 1.65983,-0.0125 3.48748,0.63281 5.74023,1.31836 2.25276,0.68555 4.61089,1.42376 7.83162,1.0618 7.07205,-0.79478 14.56768,-5.61818 20.69182,-12.31961 6.12414,-6.70143 11.39658,-15.36342 13.7793,-24.51367 3.10516,-11.92459 2.88222,-24.07496 -1.29297,-33.521495 -4.27693,-9.676717 -12.31913,-16.97698 -22.73993,-18.661062 -4.78178,-0.772773 -8.54797,-0.419936 -12.30841,0.419016 -3.60594,0.804482 -6.00839,2.498364 -10.69613,3.306802 -2.65333,0.457588 -6.48481,-1.147848 -9.971972,-2.405458 C 95.735997,72.484044 93.18881,71.975924 89.388672,71.75 Z m -3.34859,3.585112 c 4.785251,-0.386818 8.608187,0.61885 12.289996,1.784029 2.070372,0.655209 3.744322,1.305245 5.542272,1.887619 1.79026,0.579883 3.52502,1.295631 5.19846,1.468886 2.64079,0.273406 4.13765,0.276573 5.85461,-0.72064 -1.88667,-0.225194 -2.77938,-0.434123 -3.31454,-0.905483 3.64032,-1.375477 5.61546,-2.036807 8.38054,-2.647898 3.41286,-0.75425 6.72787,-1.003515 11.25998,-0.181679 9.10299,1.650702 15.72859,7.514056 19.72989,16.361216 3.80228,8.407118 3.85794,19.243678 1.05356,30.475348 -2.14079,8.57395 -7.05666,17.38738 -12.81805,23.67865 -5.89831,6.44079 -12.76293,10.44241 -18.32283,10.8856 -2.55447,0.20362 -4.50914,0.0423 -6.6342,-0.60435 -2.12507,-0.6467 -4.2274,-1.67347 -6.72893,-1.6546 -2.90267,0.0219 -5.31752,1.28118 -7.36585,1.84796 -2.412964,0.66767 -4.855361,0.76477 -7.803935,0.25223 -8.274685,-1.43836 -16.053478,-7.57485 -22.1942,-15.8337 -6.140721,-8.25886 -9.847622,-17.947 -10.806367,-27.68611 C 57.21519,91.949834 69.715768,76.654698 86.040082,75.335112 Z"
         id="path17" />
    </g>
    <g
       id="layer4"
       style="display:inline">
      <path
         style="display:inline;fill:#0f2c30"
         d="m 92.299321,92.989718 c -9.601454,0 -17.343749,7.925642 -17.34375,17.660682 -2e-6,9.7229 7.650496,17.5293 17.251954,17.5293 9.601445,0 17.436675,-7.88717 17.436675,-17.62223 0,-9.72287 -7.74343,-17.56775 -17.344879,-17.567752 z m -0.06571,3.661968 c 7.297171,-0.06245 13.642579,6.316104 13.759889,13.812864 0.11863,7.58108 -6.106074,14.24049 -13.646589,14.20384 -7.443734,-0.0362 -13.60842,-6.21272 -13.795082,-14.01799 -0.176955,-7.39935 6.091018,-13.933756 13.681782,-13.998714 z"
         id="path18" />
      <path
         style="display:inline;opacity:1;fill:#0f2c30"
         d="m 133.82675,92.989718 c -9.60145,0 -17.34375,7.925642 -17.34375,17.660682 0,9.7229 7.6505,17.5293 17.25196,17.5293 9.60145,0 17.43668,-7.88717 17.43668,-17.62223 0,-9.72287 -7.74343,-17.56775 -17.34489,-17.567752 z m -0.0657,3.661968 c 7.29717,-0.06245 13.64259,6.316104 13.7599,13.812864 0.11863,7.58108 -6.10608,14.24049 -13.6466,14.20384 -7.44373,-0.0362 -13.60842,-6.21272 -13.79508,-14.01799 -0.17695,-7.39935 6.09102,-13.933756 13.68178,-13.998714 z"
         id="path2" />
      <path
         style="fill:#0f2c30"
         d="m 113.21338,105.64259 c -2.15962,-0.0196 -4.30947,0.56807 -6.23242,1.91797 l 1.99023,2.83593 c 2.66625,-1.87167 5.78774,-1.68615 8.85547,0.006 l 1.67188,-3.03515 c -1.95712,-1.07945 -4.12554,-1.70499 -6.28516,-1.72461 z"
         id="path19" />
      <path
         style="fill:#0f2c30;stroke-linecap:round"
         d="m 71.896978,108.66086 c -0.957534,-0.002 -1.735206,0.83864 -1.736328,1.79618 -0.001,0.95677 0.773695,1.73326 1.730468,1.73438 l 4.464986,0.006 c 0.95753,0.002 1.932324,-0.77293 1.933452,-1.73046 10e-4,-0.95677 -0.724415,-1.79896 -1.681188,-1.80009 z"
         id="path20" />
      <path
         style="opacity:1;fill:none;fill-opacity:1;stroke:#0f2c30;stroke-width:3.46501;stroke-linecap:round;stroke-dasharray:none;stroke-opacity:1"
         d="m 149.42066,110.46477 6.17952,-0.0465"
         id="path21" />
    </g>
    <g
       id="layer5"
       style="display:inline">
      <path
         id="path22"
         style="opacity:1;fill:#0f2c30;stroke-width:3.46501;stroke-linecap:round"
         d="m 133.63934,111.1481 a 3.8878777,5.7529831 0 0 1 -3.88787,5.75299 3.8878777,5.7529831 0 0 1 -3.88788,-5.75299 3.8878777,5.7529831 0 0 1 3.88788,-5.75298 3.8878777,5.7529831 0 0 1 3.88787,5.75298 z" />
      <path
         id="ellipse23"
         style="opacity:1;fill:#0f2c30;stroke-width:3.46501;stroke-linecap:round"
         d="m 99.610072,111.1481 a 3.8878777,5.7529831 0 0 1 -3.887876,5.75299 3.8878777,5.7529831 0 0 1 -3.887878,-5.75299 3.8878777,5.7529831 0 0 1 3.887878,-5.75298 3.8878777,5.7529831 0 0 1 3.887876,5.75298 z" />
      <path
         style="opacity:1;fill:none;stroke:#0f2c30;stroke-width:3.465;stroke-linecap:round;stroke-dasharray:none;stroke-opacity:1"
         d="m 104.62013,130.79752 c 3.94301,5.62466 12.33565,5.61197 17.14978,-0.0657"
         id="path3" />
    </g>
  </g>
</svg>
