<?xml version="1.0" encoding="UTF-8" standalone="no"?>
<!-- Created with Inkscape (http://www.inkscape.org/) -->

<svg
   width="213.71979mm"
   height="186.94635mm"
   viewBox="0 0 213.71979 186.94635"
   version="1.1"
   id="svg1"
   xml:space="preserve"
   xmlns="http://www.w3.org/2000/svg"
   xmlns:svg="http://www.w3.org/2000/svg"><defs
     id="defs1" /><g
     id="layer6"
     style="display:inline;opacity:1"
     transform="translate(-30.821804,-42.553457)"><g
       id="rect1"
       style="opacity:1"><path
         style="baseline-shift:baseline;display:inline;overflow:visible;vector-effect:none;fill:#ffffff;enable-background:accumulate;stop-color:#000000;stop-opacity:1"
         d="m 115.9708,62.260628 h 107.21897 c 2.56115,0 4.62302,2.061868 4.62302,4.623023 v 82.064109 c 0,2.56116 -2.06187,4.62303 -4.62302,4.62303 H 115.9708 c -2.56115,0 -4.62302,-2.06187 -4.62302,-4.62303 V 66.883651 c 0,-2.561155 2.06187,-4.623023 4.62302,-4.623023 z"
         id="path36" /><path
         style="baseline-shift:baseline;display:inline;overflow:visible;vector-effect:none;fill:#0f2c30;enable-background:accumulate;stop-color:#000000;stop-opacity:1"
         d="m 115.9707,60.361328 c -3.58088,0 -6.52343,2.940593 -6.52343,6.521484 v 82.064458 c 0,3.58089 2.94255,6.52343 6.52343,6.52343 h 107.21875 c 3.58089,0 6.52344,-2.94254 6.52344,-6.52343 V 66.882812 c 0,-3.580891 -2.94255,-6.521484 -6.52344,-6.521484 z m 0,3.798828 h 107.21875 c 1.54142,0 2.72266,1.181238 2.72266,2.722656 v 82.064458 c 0,1.54142 -1.18124,2.72265 -2.72266,2.72265 H 115.9707 c -1.54141,0 -2.72265,-1.18123 -2.72265,-2.72265 V 66.882812 c 0,-1.541418 1.18124,-2.722656 2.72265,-2.722656 z"
         id="path40" /></g><g
       id="rect3"
       style="opacity:1"><path
         style="baseline-shift:baseline;display:inline;overflow:visible;vector-effect:none;fill:#3e8e8b;enable-background:accumulate;stop-color:#000000;stop-opacity:1"
         d="m 198.25568,145.42776 h 16.07603 c 0.2574,0 0.46463,0.20723 0.46463,0.46464 v 6.73705 c 0,0.25741 -0.20723,0.46464 -0.46463,0.46464 h -16.07603 c -0.25741,0 -0.46463,-0.20723 -0.46463,-0.46464 v -6.73705 c 0,-0.25741 0.20722,-0.46464 0.46463,-0.46464 z"
         id="path45" /><path
         style="baseline-shift:baseline;display:inline;overflow:visible;vector-effect:none;fill:#0f2c30;enable-background:accumulate;stop-color:#000000;stop-opacity:1"
         d="m 198.25586,143.77734 c -1.14297,0 -2.11523,0.97231 -2.11524,2.11524 v 6.73633 c 10e-6,1.14293 0.97227,2.11523 2.11524,2.11523 h 16.07617 c 1.143,0 2.11524,-0.97226 2.11524,-2.11523 v -6.73633 c 0,-1.14298 -0.97224,-2.11524 -2.11524,-2.11524 z m 1.18555,3.30078 h 13.70507 v 4.36524 h -13.70507 z"
         id="path46" /></g><g
       id="rect2"
       style="opacity:1"><path
         style="baseline-shift:baseline;display:inline;overflow:visible;vector-effect:none;fill:#3e8e8b;enable-background:accumulate;stop-color:#000000;stop-opacity:1"
         d="m 118.33063,149.93727 h 114.63401 c 0.42844,0 0.77336,0.34492 0.77336,0.77336 v 5.8417 c 0,0.42844 -0.34492,0.77336 -0.77336,0.77336 H 118.33063 c -0.42845,0 -0.77336,-0.34492 -0.77336,-0.77336 v -5.8417 c 0,-0.42844 0.34491,-0.77336 0.77336,-0.77336 z"
         id="path47" /><path
         style="baseline-shift:baseline;display:inline;overflow:visible;vector-effect:none;fill:#0f2c30;enable-background:accumulate;stop-color:#000000;stop-opacity:1"
         d="m 118.33008,148.23633 c -1.34083,0 -2.47266,1.13379 -2.47266,2.47461 v 5.84179 c 0,1.34082 1.13183,2.47266 2.47266,2.47266 h 114.63476 c 1.34085,0 2.47266,-1.13181 2.47266,-2.47266 v -5.84179 c 0,-1.34084 -1.13181,-2.47461 -2.47266,-2.47461 z m 0.92773,3.40039 h 112.7793 v 3.98828 h -112.7793 z"
         id="path48" /></g><g
       id="rect4"
       style="opacity:1"
       transform="rotate(-45.398987)"><path
         style="baseline-shift:baseline;display:inline;overflow:visible;vector-effect:none;fill:#3e8e8b;stroke-linecap:round;stroke-linejoin:round;enable-background:accumulate;stop-color:#000000;stop-opacity:1"
         d="m 56.178734,221.9684 c -0.260293,-0.26029 -0.619876,-0.42074 -1.018775,-0.42074 l -23.437951,-0.30799 -6.92591,3.31503 6.351025,3.54858 24.012633,0.2952 c 0.797797,0 1.439904,-0.64251 1.439904,-1.44031 l 2.42e-4,-3.97025 c 0,-0.3989 -0.160876,-0.75923 -0.421168,-1.01952 z"
         id="path5" /><path
         style="baseline-shift:baseline;display:inline;overflow:visible;vector-effect:none;fill:#0f2c30;stroke-linecap:round;stroke-linejoin:round;enable-background:accumulate;stop-color:#000000;stop-opacity:1"
         d="m 29.872542,220.21046 -5.459747,2.31259 c -2.041537,0.87351 -2.389851,3.03452 -0.506601,4.05514 l 6.160852,2.66901 c 0.593235,0.257 1.126878,0.47858 1.740601,0.47969 l 23.714856,0.0427 c 1.141091,0.002 2.115553,-1.24822 2.138588,-2.34543 l 0.10611,-5.05417 c 0.0269,-1.28138 -1.050394,-2.33127 -2.333916,-2.33859 l -23.179374,-0.13228 c -0.722163,-0.004 -1.679235,0.0139 -2.381369,0.31134 z m 3.55084,2.77002 21.471295,0.007 -0.08248,3.90027 -21.321969,-0.21998 z m -2.979823,0.24971 0.0096,2.83013 -3.421531,-1.36748 z"
         id="path8" /></g><g
       id="g30"
       style="display:inline"><path
         id="path28"
         style="font-size:19.7556px;font-family:'Kosugi Maru';-inkscape-font-specification:'Kosugi Maru';display:inline;opacity:1;fill:#0f2c30;fill-opacity:1;stroke-width:4.58442;stroke-linecap:round;stroke-linejoin:round"
         d="m 207.3281,81.297842 c -5.74028,1.011497 -7.81858,6.196643 -7.80903,10.802737 0.009,4.339151 2.73708,8.406461 6.44528,9.493351 3.21585,0.94257 7.2188,1.22731 10.1045,-2.402736 1.21256,-1.525325 -1.11387,-3.432088 -2.73521,-2.27903 -2.34999,1.671281 -3.86644,1.931307 -6.339,0.711432 -2.03008,-1.001577 -3.16025,-3.212762 -3.14795,-5.47178 0.0119,-2.188055 -0.19558,-3.920572 2.91425,-6.318149 1.69224,-1.304659 5.11904,-0.703822 6.02063,0.266397 1.39558,1.501783 2.66638,0.812876 3.30667,-0.260409 0.86723,-1.45365 -0.15382,-2.297826 -0.94314,-2.899729 -2.32749,-1.774863 -4.97845,-2.142267 -7.817,-1.64208 z" /><path
         d="m 188.88459,81.369194 c -1.16742,-0.05505 -2.56348,-0.03502 -4.24728,0.06253 -1.68955,0.09788 -2.23719,0.538363 -2.36523,2.066024 l -0.0139,15.893603 c -0.27333,1.464419 1.11577,2.986869 2.94297,2.908869 h 5.2e-4 c 2.48926,-0.085 5.10268,0.27629 7.48326,-0.48938 2.75682,-0.77495 4.34866,-3.210658 4.30516,-5.610508 -0.0435,-2.39985 -1.04243,-3.834847 -3.1011,-5.204851 2.05329,-1.8704 2.26096,-5.277207 0.93689,-7.188708 -0.99304,-1.433628 -2.43895,-2.272433 -5.94124,-2.437577 z m 2.6954,6.10405 c 0.0173,2.010371 -0.94084,2.405394 -4.59983,2.316025 -0.27785,-0.0068 -0.59733,-0.366415 -0.59577,-0.665401 l 0.0183,-3.506057 c 0.001,-0.193126 0.29447,-0.509453 0.47749,-0.51108 3.42038,-0.0304 4.6809,0.165979 4.69981,2.366513 z m 1.07195,8.376765 c -0.0398,2.661492 -2.12511,2.535285 -5.14932,2.498648 -0.59001,-0.0071 -1.07544,-0.203851 -1.07464,-0.829406 l 0.004,-3.483647 c 5.7e-4,-0.443591 0.38381,-0.73375 0.72106,-0.735803 2.69921,-0.01643 5.54126,-0.314682 5.49845,2.550208 z"
         style="font-size:19.7556px;font-family:'Kosugi Maru';-inkscape-font-specification:'Kosugi Maru';display:inline;opacity:1;fill:#0f2c30;stroke-width:4.24169;stroke-linecap:round;stroke-linejoin:round"
         id="path31" /><path
         style="font-size:19.7556px;font-family:'Kosugi Maru';-inkscape-font-specification:'Kosugi Maru';display:inline;opacity:1;fill:#0f2c30;fill-opacity:1;stroke-width:4.60745;stroke-linecap:round;stroke-linejoin:round"
         d="m 161.79615,99.895354 6.30039,-17.457032 c 0.26179,-0.725328 0.92975,-1.29347 1.63435,-1.289002 l 1.30255,0.0084 c 0.7816,0.0048 1.26985,0.557091 1.48616,1.321166 0,0 4.16975,11.39813 6.31488,17.398518 0.38452,1.075566 -0.13943,2.058546 -1.04545,2.384436 -0.90603,0.32585 -2.273,0.22593 -2.68582,-1.10994 l -0.84954,-2.749076 c -0.0712,-0.230855 -0.25722,-0.413783 -0.61834,-0.417082 l -6.84123,-0.06251 c -0.30977,-0.0029 -0.47884,0.182585 -0.58113,0.483076 l -0.90853,2.668782 c -0.23693,0.696 -0.84143,1.86464 -2.43248,1.39184 -1.59108,-0.4728 -1.29176,-1.97306 -1.07581,-2.571416 z m 10.13311,-5.701591 c 0.46394,9.39e-4 0.80381,-0.230266 0.58409,-0.911439 l -1.85224,-5.742214 c -0.0856,-0.26539 -0.49485,-0.286545 -0.60074,0.004 l -2.07941,5.706953 c -0.22035,0.604744 -0.14397,0.934336 0.39465,0.935425 z"
         id="path30" /></g></g><g
     id="layer2"
     style="display:inline;opacity:1"
     transform="translate(-30.821804,-42.553457)"><g
       id="layer3"
       style="display:inline;opacity:1"><g
         id="layer7"
         style="display:inline"><path
           style="display:inline;opacity:1;fill:#5ba842;fill-opacity:1;fill-rule:evenodd;stroke-linecap:round;stroke-linejoin:round"
           d="m 107.32849,72.481573 c -20.433813,6.141771 -33.733841,-7.935715 -32.5895,-18.298271 4.317752,-1.197592 13.729243,-3.717559 22.29449,1.391847 5.45853,3.256164 8.35283,6.902347 10.29501,16.906424 z"
           id="path9" /><path
           style="display:inline;opacity:1;fill:#79bb38;fill-opacity:1;fill-rule:evenodd;stroke-linecap:round;stroke-linejoin:round"
           d="M 106.27716,72.612989 C 99.361667,62.273951 86.933385,58.829262 74.279034,54.90609 c 4.317752,-1.197592 14.189199,-4.440347 22.754446,0.669059 5.45853,3.256164 7.3015,7.033763 9.24368,17.03784 z"
           id="path11" /><path
           style="display:inline;opacity:1;fill:#0f2c30;fill-rule:evenodd;stroke-linecap:round;stroke-linejoin:round"
           d="m 84.315708,50.937915 c -4.235336,0.14722 -7.589254,0.718634 -9.760001,1.320722 -0.748883,0.207731 -1.860647,1.876232 -1.785415,2.796851 1.055145,12.911735 14.127057,25.316665 35.104708,19.245293 0.93439,-0.280894 1.50418,-1.223806 1.31836,-2.18164 C 107.20034,61.853173 103.61708,57.433547 97.876396,54.009067 93.212803,51.227105 88.551044,50.790695 84.315708,50.937915 Z m 0.679262,3.545762 c 3.691159,-0.134811 7.163923,0.395911 11.065576,2.723354 C 100.8482,60.063001 103.17649,62.92101 105,71.005859 87.545085,75.266151 77.62752,65.117981 76.448105,55.654297 c 2.064883,-0.539027 5.537333,-1.060705 8.546865,-1.17062 z"
           id="path10" /></g><g
         id="path4"
         style="display:inline;opacity:1"><path
           style="display:inline;opacity:1;fill:#83573d;fill-rule:evenodd;stroke-linecap:round;stroke-linejoin:round"
           d="m 127.63316,51.427079 c -6.92003,3.306204 -14.17363,11.405753 -15.64631,25.495184 -1.70949,0.468179 -2.6953,0.616828 -4.19389,0.765358 -1.4621,-16.145093 5.09525,-28.500483 15.84347,-32.472692 7.63985,-2.823451 8.96327,3.839271 3.99673,6.21215 z"
           id="path6" /><path
           style="display:inline;opacity:1;fill:#0f2c30;fill-rule:evenodd;stroke-linecap:round;stroke-linejoin:round"
           d="m 115.82611,48.253007 c -6.11622,5.622432 -9.0526,13.772773 -9.74681,23.358599 -0.13828,1.909455 -0.3515,4.341275 -0.17891,6.247769 2.89503,-0.104712 5.8702,-1.34874 8.02823,-1.707372 0.27704,-2.438436 0.47075,-3.591481 1.14035,-5.773727 2.08043,-6.780178 5.21014,-12.615847 11.90077,-16.450478 4.51051,-2.585133 7.99559,-6.459673 3.33926,-10.381032 -3.85048,-3.242697 -11.84981,2.285741 -14.48289,4.706241 z m 11.04672,-1.832673 c 1.90534,-0.216725 2.62751,1.623109 1.10072,2.586325 -1.52425,0.961608 -4.06721,2.314591 -5.51397,3.418328 -7.81538,5.962372 -10.85527,14.8123 -12.25879,23.285004 -0.37486,0.07143 -0.36196,1.129474 -0.9215,0.07865 -0.31994,-7.849198 1.87477,-16.310547 6.90826,-22.572719 2.60882,-3.245637 6.59778,-6.330649 10.68528,-6.795586 z"
           id="path7" /></g></g><g
       id="path1"
       style="display:inline;opacity:1"><path
         style="color:#000000;font-style:normal;font-variant:normal;font-weight:normal;font-stretch:normal;font-size:medium;line-height:normal;font-family:sans-serif;font-variant-ligatures:normal;font-variant-position:normal;font-variant-caps:normal;font-variant-numeric:normal;font-variant-alternates:normal;font-variant-east-asian:normal;font-feature-settings:normal;font-variation-settings:normal;text-indent:0;text-align:start;text-decoration-line:none;text-decoration-style:solid;text-decoration-color:#000000;letter-spacing:normal;word-spacing:normal;text-transform:none;writing-mode:lr-tb;direction:ltr;text-orientation:mixed;dominant-baseline:auto;baseline-shift:baseline;text-anchor:start;white-space:normal;shape-padding:0;shape-margin:0;inline-size:0;clip-rule:nonzero;display:inline;overflow:visible;visibility:visible;isolation:auto;mix-blend-mode:normal;color-interpolation:sRGB;color-interpolation-filters:linearRGB;solid-color:#000000;solid-opacity:1;vector-effect:none;fill:#7abd3c;fill-opacity:1;fill-rule:nonzero;stroke:none;stroke-linecap:butt;stroke-linejoin:miter;stroke-miterlimit:4;stroke-dasharray:none;stroke-dashoffset:0;stroke-opacity:1;-inkscape-stroke:none;color-rendering:auto;image-rendering:auto;shape-rendering:auto;text-rendering:auto;enable-background:accumulate;stop-color:#000000;stop-opacity:1"
         d="m 153.88805,123.88673 c -4.98735,17.59956 -19.83328,34.07591 -32.66986,35.51853 -5.76728,0.64814 -9.5586,-2.35612 -13.71996,-2.32474 -5.04011,0.038 -7.24588,3.39416 -14.859156,2.29074 C 74.738259,156.77683 59.364668,134.13064 57.374322,113.91232 55.155921,91.377378 68.235181,74.917652 85.575447,73.515941 c 10.25664,-0.829102 17.639143,4.726996 22.529863,3.910252 9.70409,-1.62057 13.79922,-5.107623 23.56914,-3.443373 19.801,3.372985 28.7756,26.74765 22.2136,49.90391 z"
         id="path16" /><path
         style="display:inline;opacity:1;fill:#5ba842;fill-opacity:1;stroke:none;stroke-width:0.264583"
         d="m 65.019959,86.366872 c -19.767985,23.929978 5.477353,73.389188 30.956527,73.593938 3.721416,0.0299 6.717774,-2.5912 11.505954,-2.61924 4.89275,-0.0287 5.48488,2.10481 12.4414,2.05797 6.33896,-0.0427 17.72997,-7.6339 24.71678,-18.75654 -9.81552,10.42366 -17.17652,12.7169 -23.70384,12.70161 -6.52733,-0.0153 -8.10382,-2.09697 -12.89307,-2.15152 -4.78926,-0.0545 -7.09399,1.34007 -10.77446,1.33508 -21.261178,-0.0288 -42.362827,-36.26923 -32.249291,-66.161298 z"
         id="path49" /><path
         style="fill:#0f2c30"
         d="m 89.388672,71.75 c -1.266713,-0.07531 -2.585278,-0.202926 -3.953125,-0.09236 -18.356218,1.483837 -32.208076,18.884023 -29.916572,42.16156 1.031601,10.47921 5.218304,21.20572 11.737168,29.97315 6.518864,8.76743 15.545589,15.90383 25.134482,17.29359 4.076907,0.59088 6.938975,-0.0431 9.187505,-0.78711 2.24854,-0.74404 3.79615,-1.47021 5.93359,-1.48633 1.65983,-0.0125 3.48748,0.63281 5.74023,1.31836 2.25276,0.68555 4.61089,1.42376 7.83162,1.0618 7.07205,-0.79478 14.56768,-5.61818 20.69182,-12.31961 6.12414,-6.70143 11.39658,-15.36342 13.7793,-24.51367 3.10516,-11.92459 2.88222,-24.07496 -1.29297,-33.521495 -4.27693,-9.676717 -12.31913,-16.97698 -22.73993,-18.661062 -4.78178,-0.772773 -8.54797,-0.419936 -12.30841,0.419016 -3.60594,0.804482 -6.00839,2.498364 -10.69613,3.306802 -2.65333,0.457588 -6.48481,-1.147848 -9.971972,-2.405458 C 95.735997,72.484044 93.18881,71.975924 89.388672,71.75 Z m -3.34859,3.585112 c 4.785251,-0.386818 8.608187,0.61885 12.289996,1.784029 2.070372,0.655209 3.744322,1.305245 5.542272,1.887619 1.79026,0.579883 3.52502,1.295631 5.19846,1.468886 2.64079,0.273406 4.13765,0.276573 5.85461,-0.72064 -1.88667,-0.225194 -2.77938,-0.434123 -3.31454,-0.905483 3.64032,-1.375477 5.61546,-2.036807 8.38054,-2.647898 3.41286,-0.75425 6.72787,-1.003515 11.25998,-0.181679 9.10299,1.650702 15.72859,7.514056 19.72989,16.361216 3.80228,8.407118 3.85794,19.243678 1.05356,30.475348 -2.14079,8.57395 -7.05666,17.38738 -12.81805,23.67865 -5.89831,6.44079 -12.76293,10.44241 -18.32283,10.8856 -2.55447,0.20362 -4.50914,0.0423 -6.6342,-0.60435 -2.12507,-0.6467 -4.2274,-1.67347 -6.72893,-1.6546 -2.90267,0.0219 -5.31752,1.28118 -7.36585,1.84796 -2.412964,0.66767 -4.855361,0.76477 -7.803935,0.25223 -8.274685,-1.43836 -16.053478,-7.57485 -22.1942,-15.8337 -6.140721,-8.25886 -9.847622,-17.947 -10.806367,-27.68611 C 57.21519,91.949834 69.715768,76.654698 86.040082,75.335112 Z"
         id="path17" /><path
         style="fill:#b7e48c;fill-opacity:1;stroke:none;stroke-width:0.264583"
         d="m 145.69783,88.883738 c -2.49287,-2.142237 -5.39628,-4.629843 -9.22514,-6.496062 -3.82885,-1.866218 -6.17625,-3.042297 -8.57019,-3.931377 2.87101,-0.613436 6.70289,0.288913 10.46677,2.402 3.76388,2.113087 5.67533,4.573091 7.32856,8.025439 z"
         id="path50" /></g><g
       id="layer4"
       style="display:inline"><path
         style="display:inline;fill:#0f2c30"
         d="m 92.023437,90.782646 c -9.601454,0 -17.343749,7.925657 -17.34375,17.660714 -2e-6,9.7229 7.650496,17.5293 17.251954,17.5293 9.601449,0 17.436679,-7.88717 17.436679,-17.62223 0,-9.722893 -7.74343,-17.567782 -17.344883,-17.567784 z m -0.06571,3.661968 c 7.297172,-0.06245 13.642583,6.316136 13.759893,13.812896 0.11863,7.58108 -6.106079,14.24049 -13.646593,14.20384 -7.443734,-0.0362 -13.60842,-6.21272 -13.795082,-14.01799 -0.176955,-7.39935 6.091018,-13.933788 13.681782,-13.998746 z"
         id="path18" /><path
         style="display:inline;opacity:1;fill:#0f2c30"
         d="m 133.55087,90.782646 c -9.60145,0 -17.34375,7.925657 -17.34375,17.660714 0,9.7229 7.6505,17.5293 17.25196,17.5293 9.60145,0 17.43668,-7.88717 17.43668,-17.62223 0,-9.722893 -7.74343,-17.567782 -17.34489,-17.567784 z m -0.0657,3.661968 c 7.29717,-0.06245 13.64259,6.316136 13.7599,13.812896 0.11863,7.58108 -6.10608,14.24049 -13.6466,14.20384 -7.44373,-0.0362 -13.60842,-6.21272 -13.79508,-14.01799 -0.17695,-7.39935 6.09102,-13.933788 13.68178,-13.998746 z"
         id="path2" /><path
         style="fill:#0f2c30"
         d="m 112.9375,103.43555 c -2.15962,-0.0196 -4.30947,0.56807 -6.23242,1.91797 l 1.99023,2.83593 c 2.66625,-1.87167 5.78774,-1.68615 8.85547,0.006 l 1.67188,-3.03515 c -1.95712,-1.07945 -4.12554,-1.70499 -6.28516,-1.72461 z"
         id="path19" /><path
         style="fill:#0f2c30;stroke-linecap:round"
         d="m 71.621094,106.45382 c -0.957535,-10e-4 -1.735267,0.83864 -1.736328,1.79618 -0.0011,0.95677 0.773695,1.73317 1.730468,1.73438 l 4.729569,0.006 -0.01232,-3.53055 z"
         id="path20" /><path
         style="baseline-shift:baseline;display:inline;overflow:visible;opacity:1;vector-effect:none;fill:#0f2c30;stroke-linecap:round;enable-background:accumulate;stop-color:#000000;stop-opacity:1"
         d="m 155.31055,106.47852 -6.17969,0.0469 c 0,0 -0.0397,3.4359 0.0273,3.46484 l 6.17969,-0.0469 z"
         id="path21" /></g><g
       id="layer5"
       style="display:inline"><path
         id="path22"
         style="opacity:1;fill:#0f2c30;stroke-width:3.46501;stroke-linecap:round"
         d="m 133.36346,108.94106 a 3.8878777,5.7529831 0 0 1 -3.88787,5.75299 3.8878777,5.7529831 0 0 1 -3.88788,-5.75299 3.8878777,5.7529831 0 0 1 3.88788,-5.75298 3.8878777,5.7529831 0 0 1 3.88787,5.75298 z" /><path
         id="ellipse23"
         style="opacity:1;fill:#0f2c30;stroke-width:3.46501;stroke-linecap:round"
         d="m 99.33419,108.94106 a 3.8878777,5.7529831 0 0 1 -3.887878,5.75299 3.8878777,5.7529831 0 0 1 -3.887878,-5.75299 3.8878777,5.7529831 0 0 1 3.887878,-5.75298 3.8878777,5.7529831 0 0 1 3.887878,5.75298 z" /><path
         style="baseline-shift:baseline;display:inline;overflow:visible;opacity:1;vector-effect:none;fill:#0f2c30;stroke-linecap:round;enable-background:accumulate;stop-color:#000000;stop-opacity:1"
         d="m 103.34961,127.17188 a 1.7325,1.7325 0 0 0 -0.42383,2.41406 c 4.60702,6.57185 14.43498,6.49285 19.89063,0.0586 a 1.7325,1.7325 0 0 0 -0.20118,-2.4414 1.7325,1.7325 0 0 0 -2.44335,0.20117 c -4.17262,4.92108 -11.1292,4.86887 -14.40821,0.1914 a 1.7325,1.7325 0 0 0 -2.41406,-0.42382 z"
         id="path3" /></g></g><g
     id="layer12"
     style="display:inline"
     transform="translate(-30.821804,-42.553457)"><g
       id="layer9"
       style="display:inline"><g
         id="layer11"
         style="display:inline;opacity:1"><path
           style="font-weight:800;font-size:52.9673px;font-family:Dosis;-inkscape-font-specification:'Dosis Ultra-Bold';display:inline;opacity:1;fill:#fd738d;fill-opacity:1;stroke:#cd5870;stroke-width:0.396875;stroke-dasharray:none;stroke-opacity:1;paint-order:normal"
           d="m 238.07147,203.17735 c -0.41436,1.2e-4 -0.8136,-0.18015 -0.81353,-0.78977 l 0.004,-34.9043 c 4e-5,-0.35936 0.33161,-0.71735 0.6429,-0.71693 l 5.78953,0.008 c 0.38847,5.4e-4 0.64881,0.30747 0.64878,0.6876 l -0.002,35.00645 c -4e-5,0.45759 -0.23446,0.70757 -0.65507,0.70769 z"
           id="path13" /><path
           style="font-weight:800;font-size:52.9673px;font-family:Dosis;-inkscape-font-specification:'Dosis Ultra-Bold';display:inline;opacity:1;fill:#fd738d;fill-opacity:1;stroke:#cd5870;stroke-width:0.396875;stroke-dasharray:none;stroke-opacity:1"
           d="m 207.71646,189.71452 c -0.0636,-8.88477 6.22884,-14.37697 14.46462,-13.90503 7.34214,0.42073 10.36533,4.95877 11.26063,6.99005 0.38634,0.87654 -0.10873,1.47018 -0.60805,1.62433 l -4.07805,1.25897 c -0.64197,0.19819 -1.06683,-0.12405 -1.55584,-0.78979 -4.07935,-5.55399 -12.40112,-2.98355 -12.41904,4.55992 -0.0205,8.61971 9.31062,9.65914 12.53285,5.34499 0.46242,-0.61912 1.30486,-0.6929 1.9454,-0.45493 l 3.74528,1.39143 c 0.63819,0.2371 0.77164,1.04976 0.49694,1.60904 -1.79007,3.64449 -6.20308,6.06605 -11.50979,6.38231 -5.06294,0.30174 -14.19645,-3.04194 -14.27495,-14.01129 z"
           id="path29" /><path
           d="m 201.67761,195.38549 c -1.12084,0 -2.05518,0.38484 -2.80241,1.15445 -0.74723,0.73616 -1.12086,1.63966 -1.12086,2.71043 0,1.03731 0.37363,1.94082 1.12086,2.71043 0.74723,0.76962 1.68157,1.15445 2.80241,1.15445 1.05292,0 1.95287,-0.38483 2.7001,-1.15445 0.78118,-0.76961 1.17202,-1.67312 1.17202,-2.71043 0,-1.07077 -0.39084,-1.97427 -1.17202,-2.71043 -0.74723,-0.76961 -1.64718,-1.15445 -2.7001,-1.15445 z"
           style="font-weight:800;font-size:52.9673px;font-family:Dosis;-inkscape-font-specification:'Dosis Ultra-Bold';display:inline;opacity:1;fill:#fd738d;stroke:#cd5870;stroke-width:0.396875;stroke-dasharray:none;stroke-opacity:1"
           id="path12" /></g><g
         id="layer10"
         style="display:inline;opacity:1"><path
           style="font-weight:800;font-size:52.9673px;font-family:Dosis;-inkscape-font-specification:'Dosis Ultra-Bold';display:inline;opacity:1;fill:#30ae4a;fill-opacity:1;stroke:#106c1f;stroke-width:0.396875;stroke-linecap:round;stroke-linejoin:round;stroke-dasharray:none;stroke-opacity:1;paint-order:normal"
           d="m 183.32225,204.02014 c -3.24478,0.1201 -9.439,-1.27828 -11.52474,-6.66087 -0.24073,-0.62125 0.0181,-1.22636 0.72569,-1.48892 l 3.66469,-1.35979 c 0.71194,-0.26417 1.48858,0.19059 1.95656,0.7825 0.92054,1.16432 2.80038,3.56151 7.56679,2.61475 3.21645,-0.63889 3.177,-4.41861 -0.77758,-4.85261 -8.32005,-0.9131 -12.49138,-3.62449 -12.41331,-9.04497 0.0826,-5.73721 5.85338,-8.26041 10.11256,-8.43449 6.24386,-0.25521 9.36598,2.62966 11.06198,5.35635 0.56871,0.91432 0.40824,1.7742 -0.32439,2.08107 l -3.40754,1.42727 c -0.50243,0.21045 -1.42661,0.0815 -1.90459,-0.6342 -2.31479,-3.46624 -8.24342,-3.52264 -8.40784,0.27774 -0.079,1.82495 2.7057,2.00217 5.48044,2.55312 7.03727,1.39732 10.00311,3.93509 9.85137,8.8179 -0.21121,6.79643 -7.00335,8.39279 -11.66009,8.56515 z"
           id="path26" /><path
           style="font-weight:800;font-size:52.9673px;font-family:Dosis;-inkscape-font-specification:'Dosis Ultra-Bold';display:inline;opacity:1;fill:#30ae4a;fill-opacity:1;stroke:#106c1f;stroke-width:0.396875;stroke-linecap:round;stroke-linejoin:round;stroke-dasharray:none;stroke-opacity:1;paint-order:normal"
           d="m 154.90653,203.10975 c -0.52026,-3.7e-4 -0.8719,-0.30946 -0.87209,-0.83229 l -0.009,-24.95233 c -2.3e-4,-0.64689 0.40386,-1.14829 1.06649,-1.14672 l 5.17508,0.0122 c 0.54021,0.001 0.94917,0.34359 0.96744,1.06032 l 0.0708,2.77719 c 0.32046,-0.46115 1.60799,-2.27317 2.67653,-2.97739 1.25758,-0.8288 3.48767,-1.16571 5.25173,-1.16581 0.70065,-4e-5 1.11607,0.46719 1.11604,1.12239 l -1.9e-4,4.76043 c -2e-5,0.40656 -0.38927,1.13907 -1.1797,1.16191 -1.74756,0.0505 -4.17156,-0.28748 -5.36228,0.47891 -1.19535,0.76937 -2.55923,2.46332 -2.557,6.4602 l 0.007,12.3854 c 2.8e-4,0.49549 -0.29161,0.85981 -0.65927,0.85955 z"
           id="path24" /><path
           style="font-weight:800;font-size:52.9673px;font-family:Dosis;-inkscape-font-specification:'Dosis Ultra-Bold';display:inline;opacity:1;fill:#30ae4a;fill-opacity:1;stroke:#106c1f;stroke-width:0.396875;stroke-linecap:round;stroke-linejoin:round;stroke-dasharray:none;stroke-opacity:1;paint-order:normal"
           d="m 127.32683,180.05032 c 5.67164,-5.98365 16.16391,-5.82085 20.79036,1.19411 1.9888,3.01556 1.97536,7.14359 2.03712,9.11873 0.0231,0.73766 -0.3854,1.39944 -1.17455,1.39896 l -17.67332,-0.0109 c 0.1037,1.84115 1.2082,5.00405 4.30773,5.56799 3.09954,0.56395 5.57848,0.59077 7.95175,-1.81562 0.41288,-0.41866 1.10045,-0.52032 1.58753,-0.2597 l 3.09958,1.65843 c 0.517,0.27662 0.71335,0.8879 0.34487,1.57989 -2.52093,4.73419 -10.08155,7.44013 -17.78852,3.58932 -7.70697,-3.85082 -8.98147,-16.21979 -3.48255,-22.02121 z m 4.15869,6.64163 11.23226,-0.0159 c -0.38223,-3.95348 -2.84328,-5.22409 -5.55085,-5.18953 -2.70758,0.0346 -4.92664,1.19207 -5.68141,5.20543 z"
           id="path15" /><path
           style="font-weight:800;font-size:52.9673px;font-family:Dosis;-inkscape-font-specification:'Dosis Ultra-Bold';display:inline;opacity:1;fill:#30ae4a;fill-opacity:1;stroke:#106c1f;stroke-width:0.396875;stroke-linecap:round;stroke-linejoin:round;stroke-dasharray:none;stroke-opacity:1;paint-order:normal"
           d="m 96.064964,211.83047 c -0.609731,-4e-5 -0.922334,-0.34935 -0.921997,-0.85995 l 0.02379,-36.03598 c 4.9e-4,-0.74154 -0.04235,-1.0713 0.810978,-1.06811 l 5.216915,0.0195 c 0.91537,0.003 0.77808,0.1704 0.81452,0.91088 l -0.0599,20.41813 8.36437,-10.59677 c 0.42373,-0.42374 0.68379,-0.77675 1.31939,-0.77354 l 5.69921,0.0288 c 0.83365,0.004 1.21719,1.17127 0.68009,1.7922 l -8.49604,9.88653 9.1086,14.86143 c 0.27795,0.4535 -0.16448,1.48842 -0.69443,1.41272 l -5.80439,-0.0285 c -0.18408,-9e-4 -0.53684,-0.23396 -0.6589,-0.43336 l -6.42278,-10.49262 -3.12497,3.29368 0.0224,6.77913 c 10e-4,0.41561 -0.28758,0.88578 -0.85009,0.88574 z"
           transform="scale(1.0426656,0.95908029)"
           id="path14" /><path
           style="font-weight:800;font-size:52.9673px;font-family:Dosis;-inkscape-font-specification:'Dosis Ultra-Bold';display:inline;opacity:1;fill:#30ae4a;fill-opacity:1;stroke:#106c1f;stroke-width:0.396875;stroke-linecap:round;stroke-linejoin:round;stroke-dasharray:none;stroke-opacity:1;paint-order:normal"
           d="m 83.516292,211.77706 c -0.397405,1.2e-4 -0.780309,-0.18784 -0.780246,-0.82347 l 0.0036,-36.39351 c 3.7e-5,-0.37469 0.318037,-0.74796 0.616595,-0.74752 l 5.552618,0.008 c 0.372582,5.6e-4 0.622265,0.32058 0.62224,0.71693 l -0.0023,36.50002 c -3e-5,0.47712 -0.224865,0.73776 -0.628257,0.73789 z"
           transform="scale(1.0426656,0.95908029)"
           id="path27" /><path
           d="m 57.830801,181.70689 c -0.526169,1.08938 -0.134384,1.87382 0.515717,2.08281 l 4.039316,1.29853 c 0.48798,0.15688 1.251262,0.0243 1.803977,-0.87945 1.224814,-2.00278 3.756648,-2.86005 6.506156,-2.2416 1.901841,0.42778 3.36748,2.02107 3.262299,4.85156 -2.029992,4.2e-4 -6.150076,0.14712 -8.171645,0.37201 -3.006292,0.33443 -6.040021,1.54983 -7.930904,4.11791 -1.604446,2.17905 -1.500242,4.68417 -0.778789,7.20495 0.84928,2.9674 4.462204,4.85819 6.697461,5.21644 4.394897,0.70437 7.337232,-0.24908 10.46082,-3.99865 l 0.08108,2.32549 c 0.02123,0.60879 0.417578,1.12814 0.972969,1.13076 l 4.569954,0.0216 c 0.701288,0.003 0.983534,-0.54741 0.986045,-1.24608 l 0.06098,-16.96896 c 0.0082,-2.28361 -1.352819,-5.78237 -4.511721,-7.61114 -3.84029,-2.22325 -10.434647,-2.39011 -14.839474,0.23032 -1.555888,0.9256 -3.058031,2.71418 -3.724241,4.0935 z m 16.349521,9.87936 c -0.04644,4.38257 -1.917604,5.95812 -5.547519,6.63118 -4.531099,0.84016 -5.338402,-3.15548 -4.106221,-4.8776 1.936222,-2.7061 6.568059,-1.29518 9.65374,-1.75358 z"
           style="font-weight:800;font-size:52.9673px;font-family:Dosis;-inkscape-font-specification:'Dosis Ultra-Bold';display:inline;opacity:1;fill:#30ae4a;fill-opacity:1;stroke:#106c1f;stroke-width:0.396875;stroke-linecap:round;stroke-linejoin:round;stroke-dasharray:none;stroke-opacity:1;paint-order:normal"
           id="path33" /><path
           style="font-weight:800;font-size:52.9673px;font-family:Dosis;-inkscape-font-specification:'Dosis Ultra-Bold';display:inline;opacity:1;fill:#30ae4a;fill-opacity:1;stroke:#106c1f;stroke-width:0.396875;stroke-linecap:round;stroke-linejoin:round;stroke-dasharray:none;stroke-opacity:1;paint-order:normal"
           d="m 40.536195,211.80738 c -0.810231,0.004 -1.171234,-0.61123 -1.170953,-1.3497 l 0.01114,-29.28203 -8.490361,-0.0121 c -0.776857,-10e-4 -1.117572,-0.46736 -1.118595,-1.07598 l -0.0084,-5.0046 c -0.0015,-0.88421 0.429781,-1.31453 1.312563,-1.31062 l 24.634728,0.10903 c 0.670923,0.003 1.317967,0.51606 1.308589,1.18405 l -0.06745,4.80417 c -0.01091,0.77678 -0.526376,1.31404 -1.263186,1.31344 l -9.02533,-0.007 -0.01114,29.25781 c -3.23e-4,0.84747 -0.448304,1.34534 -1.324182,1.3497 z"
           transform="scale(1.0426656,0.95908029)"
           id="text1" /></g></g><g
       id="layer13"
       style="display:inline;opacity:1"><g
         id="layer15"
         style="display:inline;opacity:1"><path
           style="font-weight:bold;font-size:14.1111px;font-family:Corbel;-inkscape-font-specification:'Corbel Bold';display:inline;opacity:1;fill:#3088b1;fill-opacity:1;stroke:#175073;stroke-width:0.264583;stroke-dasharray:none;stroke-opacity:1"
           d="m 233.66344,223.05015 c 0.19803,0.1011 0.29339,0.3106 0.15895,0.57864 -0.69876,1.39295 -3.54314,2.53491 -6.30938,1.04309 -2.03462,-1.09724 -2.37452,-3.91811 -2.0302,-5.79049 0.53509,-2.90987 3.88174,-4.4318 6.63944,-2.96292 1.91225,1.01856 2.27266,2.77795 2.21879,4.61031 -0.006,0.21514 -0.25589,0.54566 -0.50733,0.54495 l -5.71417,-0.0162 c -0.23786,-6.7e-4 -0.33289,0.15278 -0.33205,0.31486 0.003,0.6507 0.37268,1.43208 1.21903,1.81271 0.94632,0.42562 2.21441,0.223 3.02843,-0.54007 0.19531,-0.1831 0.3737,-0.23531 0.59495,-0.12237 z m -5.57724,-3.75347 3.70591,0.0255 c 0.18603,0.001 0.28532,-0.0832 0.25641,-0.26739 -0.16459,-1.04883 -0.95567,-1.73076 -2.05424,-1.74599 -1.14064,-0.0157 -2.03892,0.6761 -2.16498,1.71919 -0.0151,0.125 0.17172,0.26817 0.2569,0.26876 z"
           id="path35" /><path
           style="font-weight:bold;font-size:14.1111px;font-family:Corbel;-inkscape-font-specification:'Corbel Bold';display:inline;opacity:1;fill:#3088b1;fill-opacity:1;stroke:#175073;stroke-width:0.193365;stroke-dasharray:none;stroke-opacity:1"
           d="m 152.606,218.48891 c 1.08818,0.12285 1.92986,1.22695 1.93104,2.20725 l 0.006,4.98221 c 2.3e-4,0.18761 -0.12425,0.32723 -0.27048,0.3263 l -1.15708,-0.007 c -0.12446,-7.9e-4 -0.28615,-0.10099 -0.28563,-0.31972 l 0.01,-4.20568 c 0.002,-0.64246 -0.49953,-1.19803 -1.40483,-1.19741 -0.93915,6.4e-4 -1.36214,0.83177 -1.36222,1.37967 l -5.9e-4,4.11273 c -3e-5,0.17031 -0.0675,0.27303 -0.23304,0.2689 l -1.24854,-0.0312 c -0.14058,-0.004 -0.25475,-0.14021 -0.25479,-0.27114 l -0.002,-6.79073 c -4e-5,-0.12712 0.0839,-0.23804 0.22352,-0.23859 l 1.34793,-0.005 c 0.12268,-4.9e-4 0.19502,0.12512 0.19765,0.24277 l 0.0146,0.65332 c 0.002,0.10357 0.11814,0.12765 0.15678,0.0106 0.23686,-0.71749 1.25647,-1.23869 2.33166,-1.1173 z"
           id="path38"
           transform="matrix(1.425957,0,0,1.31299,-16.635156,-71.529673)" /><g
           id="layer19"><path
             id="path43"
             style="opacity:1;fill:#3088b1;fill-opacity:1;stroke:#175073;stroke-width:0.264583;stroke-dasharray:none;stroke-opacity:1"
             d="m 213.02265,212.74153 a 1.4552083,1.4386719 0 0 1 -1.45521,1.43867 1.4552083,1.4386719 0 0 1 -1.4552,-1.43867 1.4552083,1.4386719 0 0 1 1.4552,-1.43867 1.4552083,1.4386719 0 0 1 1.45521,1.43867 z" /><path
             style="font-weight:bold;font-size:14.1111px;font-family:Corbel;-inkscape-font-specification:'Corbel Bold';display:inline;opacity:1;fill:#3088b1;fill-opacity:1;stroke:#175073;stroke-width:0.264583;stroke-dasharray:none;stroke-opacity:1"
             d="m 210.21032,225.15428 v -9.25408 c 0,-0.12618 0.10426,-0.19511 0.25515,-0.19511 h 2.12413 c 0.20275,0 0.28303,0.0922 0.28303,0.20381 v 9.26569 c 0,0.10036 -0.1112,0.16085 -0.26624,0.16085 h -2.13672 c -0.14364,0 -0.25935,-0.0753 -0.25935,-0.18116 z"
             id="path42" /></g><path
           style="font-weight:bold;font-size:14.1111px;font-family:Corbel;-inkscape-font-specification:'Corbel Bold';display:inline;opacity:1;fill:#3088b1;fill-opacity:1;stroke:#175073;stroke-width:0.193365;stroke-dasharray:none;stroke-opacity:1"
           d="m 155.89645,225.88794 v -9.9715 c 0,-0.13597 0.072,-0.21024 0.17621,-0.21024 h 1.46699 c 0.14003,0 0.19547,0.0994 0.19547,0.21961 v 9.98401 c 0,0.10813 -0.0768,0.17331 -0.18387,0.17331 h -1.47569 c -0.0992,0 -0.17911,-0.0811 -0.17911,-0.19519 z"
           id="path41"
           transform="matrix(1.425957,0,0,1.31299,-16.635156,-71.529673)" /><path
           style="font-weight:bold;font-size:14.1111px;font-family:Corbel;-inkscape-font-specification:'Corbel Bold';display:inline;opacity:1;fill:#3088b1;fill-opacity:1;stroke:#175073;stroke-width:0.264583;stroke-dasharray:none;stroke-opacity:1"
           d="m 220.81819,215.34408 c 1.5517,0.1613 2.75189,1.61097 2.75358,2.8981 l 0.009,6.54159 c 3.3e-4,0.24633 -0.17717,0.42965 -0.38569,0.42843 l -1.64995,-0.009 c -0.17747,-0.001 -0.40803,-0.1326 -0.40729,-0.41979 l 0.0143,-5.52202 c 0.003,-0.84354 -0.71231,-1.573 -2.00323,-1.57218 -1.33919,8.4e-4 -1.94235,1.0921 -1.94247,1.81149 l -8.4e-4,5.39997 c -4e-5,0.22362 -0.0962,0.35849 -0.3323,0.35306 l -1.78037,-0.041 c -0.20046,-0.005 -0.36326,-0.18409 -0.36332,-0.356 l -0.003,-8.91617 c -6e-5,-0.1669 0.11964,-0.31254 0.31873,-0.31326 l 1.92209,-0.007 c 0.17494,-6.4e-4 0.27809,0.16428 0.28184,0.31876 l 0.0208,0.8578 c 0.003,0.13599 0.16846,0.1676 0.22356,0.0139 0.33775,-0.94206 1.79167,-1.62639 3.32485,-1.46701 z"
           id="path39" /><path
           id="path44"
           style="display:inline;opacity:1;fill:#3088b1;fill-opacity:1;stroke:#175073;stroke-width:0.193365;stroke-dasharray:none;stroke-opacity:1"
           d="m 142.54681,215.86444 a 4.6386971,5.2141252 0 0 0 -4.6387,5.21412 4.6386971,5.2141252 0 0 0 4.6387,5.21413 4.6386971,5.2141252 0 0 0 4.6387,-5.21413 4.6386971,5.2141252 0 0 0 -4.6387,-5.21412 z m 0.0116,1.96474 a 2.7252348,3.3249491 0 0 1 2.72523,3.32495 2.7252348,3.3249491 0 0 1 -2.72523,3.32495 2.7252348,3.3249491 0 0 1 -2.72524,-3.32495 2.7252348,3.3249491 0 0 1 2.72524,-3.32495 z"
           transform="matrix(1.425957,0,0,1.31299,-16.635156,-71.529673)" /></g><g
         id="layer14"
         transform="matrix(1.425957,0,0,1.31299,-16.635156,-71.529673)"
         style="display:inline;opacity:1;fill:#043448;fill-opacity:1;stroke:#0c1f26;stroke-width:0.193365;stroke-dasharray:none;stroke-opacity:1"><g
           id="layer18"
           style="opacity:1;fill:#043448;fill-opacity:1;stroke:#0c1f26;stroke-width:0.193365;stroke-dasharray:none;stroke-opacity:1"><path
             style="font-weight:bold;font-size:14.1111px;font-family:Corbel;-inkscape-font-specification:'Corbel Bold';opacity:1;fill:#043448;fill-opacity:1;stroke:#0c1f26;stroke-width:0.264583;stroke-dasharray:none;stroke-opacity:1"
             d="m 171.58213,221.59463 c -0.93393,-0.24727 -2.30213,-0.25097 -3.69915,-1.12022 -1.18444,-0.73698 -1.04856,-2.83468 -0.54313,-3.57227 0.93187,-1.35989 2.2506,-1.56106 3.67331,-1.58724 1.52018,-0.028 2.8016,1.22059 3.21931,1.88857 0.1128,0.26058 0.0937,0.4058 -0.0962,0.58191 l -1.079,0.54356 c -0.19965,0.10057 -0.42148,0.0833 -0.65134,-0.12648 -0.58248,-0.53166 -0.89352,-1.03057 -1.8775,-1.02574 -1.232,-0.13569 -1.87134,1.4541 -0.67601,1.99462 1.68273,0.58939 2.71725,0.22669 3.9134,1.17147 1.10164,0.82804 1.32061,2.92572 0.14012,4.13222 -1.11585,1.14044 -3.55558,1.34242 -5.15713,0.68597 -1.24905,-0.51197 -1.37381,-0.82514 -1.89819,-1.70001 -0.10276,-0.17144 -0.0338,-0.51235 0.14059,-0.60281 l 1.20983,-0.62747 c 0.25824,-0.13394 0.42289,-3.8e-4 0.54623,0.1719 0.33634,0.46979 1.11265,1.37257 2.38557,1.2073 1.77025,-0.22983 1.17154,-1.82407 0.44932,-2.01528 z"
             id="path37"
             transform="matrix(0.70128343,0,0,0.76162043,11.665959,54.47846)" /><g
             id="layer20"
             style="display:inline;opacity:1;fill:#043448;fill-opacity:1;stroke:#0c1f26;stroke-width:0.193365;stroke-dasharray:none;stroke-opacity:1"><path
               style="font-weight:bold;font-size:14.1111px;font-family:Corbel;-inkscape-font-specification:'Corbel Bold';display:inline;opacity:1;fill:#043448;fill-opacity:1;stroke:#0c1f26;stroke-width:0.193365;stroke-dasharray:none;stroke-opacity:1"
               d="m 126.51913,215.76241 -0.86664,1.24062 a 0.58643083,0.58643083 149.22028 0 1 -0.4144,0.24683 l -0.72564,0.0826 a 0.14277501,0.14277501 55.151744 0 1 -0.14359,-0.20623 l 0.77815,-1.54051 a 0.36995766,0.36995766 152.37075 0 1 0.38134,-0.1996 l 0.88025,0.1228 a 0.16215433,0.16215433 66.439291 0 1 0.11053,0.25346 z"
               id="path64" /><path
               style="font-weight:bold;font-size:14.1111px;font-family:Corbel;-inkscape-font-specification:'Corbel Bold';display:inline;opacity:1;fill:#043448;fill-opacity:1;stroke:#0c1f26;stroke-width:0.264583;stroke-dasharray:none;stroke-opacity:1"
               d="m 118.64102,223.05015 c 0.19804,0.10107 0.2934,0.3106 0.15895,0.57863 -0.69876,1.39296 -3.54313,2.53491 -6.30937,1.0431 -2.03463,-1.09725 -2.37452,-3.91811 -2.03021,-5.79049 0.53509,-2.90987 3.88174,-4.4318 6.63945,-2.96292 1.91225,1.01855 2.27266,2.77795 2.21878,4.6103 -0.006,0.21515 -0.25588,0.54567 -0.50733,0.54496 l -5.71416,-0.0162 c -0.23786,-6.7e-4 -0.33289,0.15278 -0.33205,0.31486 0.003,0.6507 0.37268,1.43207 1.21903,1.81271 0.94631,0.42561 2.21441,0.22299 3.02842,-0.54007 0.19532,-0.1831 0.37371,-0.23532 0.59496,-0.1224 z m -5.57723,-3.75347 3.7059,0.0254 c 0.18603,0.001 0.28532,-0.0832 0.25642,-0.26739 -0.1646,-1.04883 -0.95568,-1.73076 -2.05425,-1.74598 -1.14063,-0.0158 -2.03892,0.6761 -2.16497,1.71918 -0.0151,0.125 0.17171,0.26817 0.2569,0.26876 z"
               id="path25"
               transform="matrix(0.70128343,0,0,0.76162043,44.032472,54.47846)" /></g><path
             style="font-weight:bold;font-size:14.1111px;font-family:Corbel;-inkscape-font-specification:'Corbel Bold';opacity:1;fill:#043448;fill-opacity:1;stroke:#0c1f26;stroke-width:0.193365;stroke-dasharray:none;stroke-opacity:1"
             d="m 118.41577,225.88794 v -9.9715 c 0,-0.13597 0.072,-0.21024 0.17621,-0.21024 h 1.46699 c 0.14003,0 0.19547,0.0994 0.19547,0.21961 v 9.98401 c 0,0.10813 -0.0768,0.17331 -0.18387,0.17331 h -1.47569 c -0.0992,0 -0.17911,-0.0811 -0.17911,-0.19519 z"
             id="path32" /><path
             style="font-weight:bold;font-size:14.1111px;font-family:Corbel;-inkscape-font-specification:'Corbel Bold';opacity:1;fill:#043448;fill-opacity:1;stroke:#0c1f26;stroke-width:0.193365;stroke-dasharray:none;stroke-opacity:1"
             d="m 115.14588,224.87021 c -0.84721,1.67584 -3.89208,0.85377 -4.43878,-1.18477 -0.27179,-1.01343 -0.51115,-2.73388 0.6054,-4.24217 1.13846,-1.53789 3.48347,-1.12844 3.87301,0.11263 0.0582,0.18534 0.28136,0.12492 0.28263,-0.0595 l 0.003,-0.44271 c 10e-4,-0.16471 0.0826,-0.29695 0.2361,-0.29633 l 1.09467,0.004 c 0.15569,6.4e-4 0.24256,0.0728 0.24263,0.2769 l 0.002,6.71525 c 5.1e-4,1.61772 -1.43134,3.06199 -2.4176,3.30422 -1.49617,0.36747 -2.99609,-0.18453 -3.74351,-1.08774 -0.12437,-0.1503 -0.11267,-0.47359 -0.01,-0.57092 l 0.66981,-0.63351 c 0.17721,-0.16761 0.39933,-0.13023 0.52993,0.0437 0.57279,0.76276 1.53633,1.06799 2.4338,0.54754 0.60714,-0.3521 0.90189,-1.10461 0.99458,-2.38431 0.0159,-0.21981 -0.24521,-0.3259 -0.35806,-0.10267 z m -1.32849,-0.72643 c 1.03993,-0.005 1.63934,-0.97747 1.65787,-1.9893 0.0185,-1.01184 -0.50081,-2.0855 -1.65007,-2.06948 -1.14926,0.016 -1.67335,1.15123 -1.65339,2.04756 0.02,0.89633 0.60567,2.01632 1.64559,2.01122 z"
             id="path62" /><path
             style="font-weight:bold;font-size:14.1111px;font-family:Corbel;-inkscape-font-specification:'Corbel Bold';opacity:1;fill:#043448;fill-opacity:1;stroke:#0c1f26;stroke-width:0.193365;stroke-dasharray:none;stroke-opacity:1"
             d="m 107.33231,218.48891 c 1.08818,0.12285 1.92986,1.22695 1.93104,2.20725 l 0.006,4.98221 c 2.3e-4,0.18761 -0.12425,0.32723 -0.27048,0.3263 l -1.15708,-0.007 c -0.12446,-7.9e-4 -0.28615,-0.10099 -0.28563,-0.31972 l 0.01,-4.20568 c 0.002,-0.64246 -0.49953,-1.19803 -1.40483,-1.19741 -0.93915,6.4e-4 -1.36214,0.83177 -1.36222,1.37967 l -5.9e-4,4.11273 c -3e-5,0.17031 -0.0675,0.27303 -0.23304,0.2689 l -1.24854,-0.0312 c -0.14058,-0.004 -0.25475,-0.14021 -0.25479,-0.27114 l -0.002,-6.79073 c -4e-5,-0.12712 0.0839,-0.23804 0.22352,-0.23859 l 1.34793,-0.005 c 0.12268,-4.9e-4 0.19502,0.12512 0.19765,0.24277 l 0.0146,0.65332 c 0.002,0.10357 0.11814,0.12765 0.15678,0.0106 0.23686,-0.71749 1.25647,-1.23869 2.33166,-1.1173 z"
             id="path61" /><path
             style="font-weight:bold;font-size:14.1111px;font-family:Corbel;-inkscape-font-specification:'Corbel Bold';opacity:1;fill:#043448;fill-opacity:1;stroke:#0c1f26;stroke-width:0.193365;stroke-dasharray:none;stroke-opacity:1"
             d="m 99.620499,225.91228 v -9.62689 c 0,-0.11169 0.07213,-0.19291 0.172326,-0.19291 h 1.342925 c 0.12336,0 0.18609,0.0894 0.18609,0.21485 v 9.60123 c 0,0.0942 -0.0983,0.19064 -0.1725,0.19064 h -1.377118 c -0.09019,0 -0.151723,-0.0597 -0.151723,-0.18692 z"
             id="path60" /></g><g
           id="layer17"
           style="fill:#043448;fill-opacity:1;stroke:#0c1f26;stroke-width:0.193365;stroke-dasharray:none;stroke-opacity:1"><path
             style="font-weight:bold;font-size:14.1111px;font-family:Corbel;-inkscape-font-specification:'Corbel Bold';display:inline;opacity:1;fill:#043448;fill-opacity:1;stroke:#0c1f26;stroke-width:0.264583;stroke-dasharray:none;stroke-opacity:1"
             d="m 118.64102,223.05015 c 0.19804,0.10107 0.2934,0.3106 0.15895,0.57863 -0.69876,1.39296 -3.54313,2.53491 -6.30937,1.0431 -2.03463,-1.09725 -2.37452,-3.91811 -2.03021,-5.79049 0.53509,-2.90987 3.88174,-4.4318 6.63945,-2.96292 1.91225,1.01855 2.27266,2.77795 2.21878,4.6103 -0.006,0.21515 -0.25588,0.54567 -0.50733,0.54496 l -5.71416,-0.0162 c -0.23786,-6.7e-4 -0.33289,0.15278 -0.33205,0.31486 0.003,0.6507 0.37268,1.43207 1.21903,1.81271 0.94631,0.42561 2.21441,0.22299 3.02842,-0.54007 0.19532,-0.1831 0.37371,-0.23532 0.59496,-0.1224 z m -5.57723,-3.75347 3.7059,0.0254 c 0.18603,0.001 0.28532,-0.0832 0.25642,-0.26739 -0.1646,-1.04883 -0.95568,-1.73076 -2.05425,-1.74598 -1.14063,-0.0158 -2.03892,0.6761 -2.16497,1.71918 -0.0151,0.125 0.17171,0.26817 0.2569,0.26876 z"
             id="path23"
             transform="matrix(0.70128343,0,0,0.76162043,11.665959,54.47846)" /><path
             style="font-weight:bold;font-size:14.1111px;font-family:Corbel;-inkscape-font-specification:'Corbel Bold';opacity:1;fill:#043448;fill-opacity:1;stroke:#0c1f26;stroke-width:0.193365;stroke-dasharray:none;stroke-opacity:1"
             d="m 86.137946,222.15198 c -0.0436,-1.23319 -0.624468,-2.03705 -1.716719,-2.02521 -0.96797,0.0105 -1.757063,0.75948 -1.731816,2.18837 0.02296,1.2992 0.763896,2.17573 1.771535,2.16016 1.095951,-0.0169 1.727277,-0.9013 1.677,-2.32332 z m -5.166412,0.39399 c -0.0026,-1.43949 0.15812,-2.34701 1.271309,-3.37693 1.01978,-0.9435 2.779737,-0.76594 3.536881,0.0866 0.14486,0.16311 0.320688,0.12865 0.317634,-0.0878 l -0.04962,-3.51705 1.711429,-0.006 -0.0033,10.48523 -1.648903,0.005 0.0055,-0.87455 c 0.01976,-0.15482 -0.117708,-0.22397 -0.214174,-0.0939 -0.73185,0.98672 -2.255836,1.15248 -3.400139,0.47249 -1.14219,-0.67873 -1.524326,-1.81554 -1.52662,-3.09304 z"
             id="path58" /></g><g
           id="layer16"
           transform="matrix(0.70128343,0,0,0.76162043,11.665959,54.47846)"
           style="fill:#043448;fill-opacity:1;stroke:#0c1f26;stroke-width:0.264583;stroke-dasharray:none;stroke-opacity:1"><path
             style="font-weight:bold;font-size:14.1111px;font-family:Corbel;-inkscape-font-specification:'Corbel Bold';opacity:1;fill:#043448;fill-opacity:1;stroke:#0c1f26;stroke-width:0.264583;stroke-dasharray:none;stroke-opacity:1"
             d="m 90.652554,221.59463 c -0.933932,-0.24727 -2.302138,-0.25097 -3.69915,-1.12022 -1.184441,-0.73698 -1.048564,-2.83468 -0.543131,-3.57227 0.931867,-1.35989 2.660865,-1.70316 4.1694,-1.47148 1.534157,0.2356 2.30551,1.10483 2.72322,1.77281 0.112796,0.26058 0.09368,0.4058 -0.09623,0.58191 l -1.079004,0.54356 c -0.199651,0.10057 -0.421479,0.0833 -0.651337,-0.12648 -0.582481,-0.53166 -0.895225,-1.05042 -1.877502,-1.10842 -1.237294,-0.0731 -1.897129,1.59789 -0.676006,2.0773 1.65964,0.65157 2.706576,0.24036 3.9134,1.17147 1.091127,0.84184 1.320608,2.92572 0.140119,4.13222 -1.115852,1.14044 -3.162133,1.16453 -4.446066,0.87614 -1.317085,-0.29584 -2.190115,-1.08547 -2.60926,-1.89018 -0.09233,-0.17727 -0.03382,-0.51235 0.140596,-0.60281 l 1.209827,-0.62747 c 0.258242,-0.13394 0.422891,-3.8e-4 0.546229,0.1719 0.336337,0.46979 1.112649,1.37257 2.385575,1.2073 1.770244,-0.22983 1.171534,-1.82407 0.449315,-2.01528 z"
             id="path55" /><path
             style="font-weight:bold;font-size:14.1111px;font-family:Corbel;-inkscape-font-specification:'Corbel Bold';opacity:1;fill:#043448;fill-opacity:1;stroke:#0c1f26;stroke-width:0.264583;stroke-dasharray:none;stroke-opacity:1"
             d="m 83.875596,223.09976 c 0.198042,0.10107 0.2934,0.3106 0.15895,0.57863 -0.698756,1.39296 -3.543123,2.53491 -6.30937,1.0431 -2.034629,-1.09725 -2.374513,-3.91811 -2.030205,-5.79049 0.535089,-2.90987 3.881734,-4.4318 6.639448,-2.96292 1.912248,1.01855 2.272655,2.77795 2.218779,4.6103 -0.0063,0.21515 -0.255877,0.54567 -0.507333,0.54496 l -5.714158,-0.0162 c -0.237855,-6.7e-4 -0.332888,0.15278 -0.332046,0.31486 0.0034,0.6507 0.372677,1.43207 1.219031,1.81271 0.946302,0.42561 2.214409,0.22299 3.028413,-0.54007 0.195326,-0.1831 0.373709,-0.23532 0.594962,-0.1224 z m -5.577232,-3.75347 3.705906,0.0254 c 0.186028,0.001 0.285318,-0.0832 0.256415,-0.26739 -0.1646,-1.04883 -0.95568,-1.73076 -2.054249,-1.74598 -1.140631,-0.0158 -2.038913,0.6761 -2.164963,1.71918 -0.0151,0.125 0.171706,0.26817 0.256891,0.26876 z"
             id="path56" /><path
             style="font-weight:bold;font-size:14.1111px;font-family:Corbel;-inkscape-font-specification:'Corbel Bold';opacity:1;fill:#043448;fill-opacity:1;stroke:#0c1f26;stroke-width:0.264583;stroke-dasharray:none;stroke-opacity:1"
             d="m 71.302611,221.59463 c -0.933932,-0.24727 -2.302138,-0.25097 -3.69915,-1.12022 -1.184441,-0.73698 -1.048564,-2.83468 -0.543131,-3.57227 0.931867,-1.35989 2.250596,-1.56106 3.673306,-1.58724 1.520178,-0.028 2.801604,1.22059 3.219314,1.88857 0.112796,0.26058 0.09368,0.4058 -0.09623,0.58191 l -1.079004,0.54356 c -0.199651,0.10057 -0.421479,0.0833 -0.651337,-0.12648 -0.582481,-0.53166 -0.893526,-1.03057 -1.877502,-1.02574 -1.232,-0.13569 -1.871335,1.4541 -0.676006,1.99462 1.682725,0.58939 2.717251,0.22669 3.9134,1.17147 1.101637,0.82804 1.320608,2.92572 0.140119,4.13222 -1.115852,1.14044 -3.555583,1.34242 -5.157134,0.68597 -1.249047,-0.51197 -1.37381,-0.82514 -1.898192,-1.70001 -0.102753,-0.17144 -0.03382,-0.51235 0.140596,-0.60281 l 1.209827,-0.62747 c 0.258242,-0.13394 0.422891,-3.8e-4 0.546229,0.1719 0.336337,0.46979 1.112649,1.37257 2.385575,1.2073 1.770244,-0.22983 1.171534,-1.82407 0.449315,-2.01528 z"
             id="path34" /><path
             style="font-weight:bold;font-size:14.1111px;font-family:Corbel;-inkscape-font-specification:'Corbel Bold';opacity:1;fill:#043448;fill-opacity:1;stroke:#0c1f26;stroke-width:0.264583;stroke-dasharray:none;stroke-opacity:1"
             d="m 57.732487,224.88107 c -1.476999,-1.03545 -1.91057,-3.19259 -0.07909,-4.76435 1.111498,-0.95388 2.54812,-0.63554 5.03795,-0.5693 0.341954,-2.92615 -2.963308,-2.50922 -3.678406,-1.47694 -0.148292,0.21407 -0.371061,0.33423 -0.559504,0.26074 L 57.145188,217.821 c -0.212073,-0.0827 -0.366123,-0.30595 -0.203245,-0.53938 0.713198,-1.02213 1.4597,-1.89414 3.767094,-1.95771 2.546542,-0.0702 4.281129,1.44237 4.287041,3.76336 l 0.01507,5.91634 c 0.01357,0.26966 -0.125234,0.35147 -0.325241,0.33325 l -1.606186,-0.006 c -0.279722,0.0124 -0.376061,-0.13631 -0.340032,-0.28052 l 0.04029,-0.96947 c -1.595448,1.74157 -3.92667,1.58595 -5.047492,0.8002 z m 4.842767,-3.80608 c -1.102061,0.0221 -2.105092,-0.32845 -3.18256,0.15269 -0.81644,0.36458 -0.814271,1.8308 -0.0323,2.22052 1.463647,0.72944 2.677327,-0.1988 3.165244,-1.25318 l 0.04961,-1.12007 z"
             id="path54" /><path
             style="font-weight:bold;font-size:14.1111px;font-family:Corbel;-inkscape-font-specification:'Corbel Bold';opacity:1;fill:#043448;fill-opacity:1;stroke:#0c1f26;stroke-width:0.264583;stroke-dasharray:none;stroke-opacity:1"
             d="m 52.268515,225.05893 v -13.09248 c 0,-0.17853 0.102604,-0.27604 0.251276,-0.27604 h 2.091862 c 0.199673,0 0.278726,0.13052 0.278726,0.28835 v 13.1089 c 0,0.14197 -0.109519,0.22755 -0.26219,0.22755 h -2.104263 c -0.141519,0 -0.255411,-0.10642 -0.255411,-0.25628 z"
             id="path53" /><path
             style="font-weight:bold;font-size:14.1111px;font-family:Corbel;-inkscape-font-specification:'Corbel Bold';opacity:1;fill:#043448;fill-opacity:1;stroke:#0c1f26;stroke-width:0.264583;stroke-dasharray:none;stroke-opacity:1"
             d="m 41.615946,218.71108 c 0.0484,5.34756 5.709345,4.9593 7.207734,3.1145 0.177484,-0.21852 0.524837,-0.34611 0.795738,-0.19301 l 0.98329,0.55572 c 0.264782,0.14965 0.249103,0.53468 0.132245,0.70198 -1.635933,2.34213 -4.20354,2.76393 -6.855009,2.37535 -1.880141,-0.27554 -4.827093,-2.39262 -4.892139,-6.20936 -0.08597,-5.04429 3.468842,-6.73985 5.580733,-6.94688 2.775839,-0.27212 4.747526,0.77576 6.127792,2.25523 0.195188,0.20922 0.226234,0.59154 -0.0398,0.7864 l -1.039262,0.76122 c -0.188825,0.13831 -0.585069,0.12383 -0.752229,-0.11217 -1.774507,-2.50536 -7.293708,-2.01763 -7.249096,2.91103 z"
             id="text27" /></g></g></g></g></svg>
