<?xml version="1.0" encoding="UTF-8" standalone="no"?>
<!-- Created with Inkscape (http://www.inkscape.org/) -->

<svg
   width="213.71979mm"
   height="37.754318mm"
   viewBox="0 0 213.71979 37.754318"
   version="1.1"
   id="svg1"
   xml:space="preserve"
   xmlns="http://www.w3.org/2000/svg"
   xmlns:svg="http://www.w3.org/2000/svg"><defs
     id="defs1"><filter
       style="color-interpolation-filters:sRGB"
       id="filter16"
       x="0"
       y="0"
       width="1"
       height="1"><feConvolveMatrix
         order="3 3"
         kernelMatrix="1 1 1 1 -8 1 1 1 1"
         in="SourceGraphic"
         divisor="1"
         targetX="1"
         targetY="1"
         preserveAlpha="true"
         result="result0"
         bias="0"
         id="feConvolveMatrix16" /><feColorMatrix
         result="result3"
         values="-0.15 -0.3 -0.05 0 1 -0.15 -0.3 -0.05 0 1 0 0 0 0 1 0 0 0 1 0"
         id="feColorMatrix16" /></filter></defs><g
     id="layer11"
     style="display:inline;opacity:1"
     transform="translate(-30.821805,-166.4713)"><path
       style="font-weight:800;font-size:52.9673px;font-family:Dosis;-inkscape-font-specification:'Dosis Ultra-Bold';display:inline;opacity:1;fill:#fd738d;fill-opacity:1;stroke:#cd5870;stroke-width:0.396875;stroke-dasharray:none;stroke-opacity:1;paint-order:normal"
       d="m 238.07147,203.17735 c -0.41436,1.2e-4 -0.8136,-0.18015 -0.81353,-0.78977 l 0.004,-34.9043 c 4e-5,-0.35936 0.33161,-0.71735 0.6429,-0.71693 l 5.78953,0.008 c 0.38847,5.4e-4 0.64881,0.30747 0.64878,0.6876 l -0.002,35.00645 c -4e-5,0.45759 -0.23446,0.70757 -0.65507,0.70769 z"
       id="path13" /><path
       style="font-weight:800;font-size:52.9673px;font-family:Dosis;-inkscape-font-specification:'Dosis Ultra-Bold';display:inline;opacity:1;fill:#fd738d;fill-opacity:1;stroke:#cd5870;stroke-width:0.396875;stroke-dasharray:none;stroke-opacity:1"
       d="m 207.71646,189.71452 c -0.0636,-8.88477 6.22884,-14.37697 14.46462,-13.90503 7.34214,0.42073 10.36533,4.95877 11.26063,6.99005 0.38634,0.87654 -0.10873,1.47018 -0.60805,1.62433 l -4.07805,1.25897 c -0.64197,0.19819 -1.06683,-0.12405 -1.55584,-0.78979 -4.07935,-5.55399 -12.40112,-2.98355 -12.41904,4.55992 -0.0205,8.61971 9.31062,9.65914 12.53285,5.34499 0.46242,-0.61912 1.30486,-0.6929 1.9454,-0.45493 l 3.74528,1.39143 c 0.63819,0.2371 0.77164,1.04976 0.49694,1.60904 -1.79007,3.64449 -6.20308,6.06605 -11.50979,6.38231 -5.06294,0.30174 -14.19645,-3.04194 -14.27495,-14.01129 z"
       id="path29" /><path
       d="m 201.67761,195.38549 c -1.12084,0 -2.05518,0.38484 -2.80241,1.15445 -0.74723,0.73616 -1.12086,1.63966 -1.12086,2.71043 0,1.03731 0.37363,1.94082 1.12086,2.71043 0.74723,0.76962 1.68157,1.15445 2.80241,1.15445 1.05292,0 1.95287,-0.38483 2.7001,-1.15445 0.78118,-0.76961 1.17202,-1.67312 1.17202,-2.71043 0,-1.07077 -0.39084,-1.97427 -1.17202,-2.71043 -0.74723,-0.76961 -1.64718,-1.15445 -2.7001,-1.15445 z"
       style="font-weight:800;font-size:52.9673px;font-family:Dosis;-inkscape-font-specification:'Dosis Ultra-Bold';display:inline;opacity:1;fill:#fd738d;stroke:#cd5870;stroke-width:0.396875;stroke-dasharray:none;stroke-opacity:1"
       id="path12" /></g><g
     id="layer10"
     style="display:inline;opacity:1"
     transform="translate(-30.821805,-166.4713)"><path
       style="font-weight:800;font-size:52.9673px;font-family:Dosis;-inkscape-font-specification:'Dosis Ultra-Bold';display:inline;opacity:1;fill:#30ae4a;fill-opacity:1;stroke:#106c1f;stroke-width:0.396875;stroke-linecap:round;stroke-linejoin:round;stroke-dasharray:none;stroke-opacity:1;paint-order:normal"
       d="m 183.32225,204.02014 c -3.24478,0.1201 -9.439,-1.27828 -11.52474,-6.66087 -0.24073,-0.62125 0.0181,-1.22636 0.72569,-1.48892 l 3.66469,-1.35979 c 0.71194,-0.26417 1.48858,0.19059 1.95656,0.7825 0.92054,1.16432 2.80038,3.56151 7.56679,2.61475 3.21645,-0.63889 3.177,-4.41861 -0.77758,-4.85261 -8.32005,-0.9131 -12.49138,-3.62449 -12.41331,-9.04497 0.0826,-5.73721 5.85338,-8.26041 10.11256,-8.43449 6.24386,-0.25521 9.36598,2.62966 11.06198,5.35635 0.56871,0.91432 0.40824,1.7742 -0.32439,2.08107 l -3.40754,1.42727 c -0.50243,0.21045 -1.42661,0.0815 -1.90459,-0.6342 -2.31479,-3.46624 -8.24342,-3.52264 -8.40784,0.27774 -0.079,1.82495 2.7057,2.00217 5.48044,2.55312 7.03727,1.39732 10.00311,3.93509 9.85137,8.8179 -0.21121,6.79643 -7.00335,8.39279 -11.66009,8.56515 z"
       id="path26" /><path
       style="font-weight:800;font-size:52.9673px;font-family:Dosis;-inkscape-font-specification:'Dosis Ultra-Bold';display:inline;opacity:1;fill:#30ae4a;fill-opacity:1;stroke:#106c1f;stroke-width:0.396875;stroke-linecap:round;stroke-linejoin:round;stroke-dasharray:none;stroke-opacity:1;paint-order:normal"
       d="m 154.90653,203.10975 c -0.52026,-3.7e-4 -0.8719,-0.30946 -0.87209,-0.83229 l -0.009,-24.95233 c -2.3e-4,-0.64689 0.40386,-1.14829 1.06649,-1.14672 l 5.17508,0.0122 c 0.54021,0.001 0.94917,0.34359 0.96744,1.06032 l 0.0708,2.77719 c 0.32046,-0.46115 1.60799,-2.27317 2.67653,-2.97739 1.25758,-0.8288 3.48767,-1.16571 5.25173,-1.16581 0.70065,-4e-5 1.11607,0.46719 1.11604,1.12239 l -1.9e-4,4.76043 c -2e-5,0.40656 -0.38927,1.13907 -1.1797,1.16191 -1.74756,0.0505 -4.17156,-0.28748 -5.36228,0.47891 -1.19535,0.76937 -2.55923,2.46332 -2.557,6.4602 l 0.007,12.3854 c 2.8e-4,0.49549 -0.29161,0.85981 -0.65927,0.85955 z"
       id="path24" /><path
       style="font-weight:800;font-size:52.9673px;font-family:Dosis;-inkscape-font-specification:'Dosis Ultra-Bold';display:inline;opacity:1;fill:#30ae4a;fill-opacity:1;stroke:#106c1f;stroke-width:0.396875;stroke-linecap:round;stroke-linejoin:round;stroke-dasharray:none;stroke-opacity:1;paint-order:normal"
       d="m 127.32683,180.05032 c 5.67164,-5.98365 16.16391,-5.82085 20.79036,1.19411 1.9888,3.01556 1.97536,7.14359 2.03712,9.11873 0.0231,0.73766 -0.3854,1.39944 -1.17455,1.39896 l -17.67332,-0.0109 c 0.1037,1.84115 1.2082,5.00405 4.30773,5.56799 3.09954,0.56395 5.57848,0.59077 7.95175,-1.81562 0.41288,-0.41866 1.10045,-0.52032 1.58753,-0.2597 l 3.09958,1.65843 c 0.517,0.27662 0.71335,0.8879 0.34487,1.57989 -2.52093,4.73419 -10.08155,7.44013 -17.78852,3.58932 -7.70697,-3.85082 -8.98147,-16.21979 -3.48255,-22.02121 z m 4.15869,6.64163 11.23226,-0.0159 c -0.38223,-3.95348 -2.84328,-5.22409 -5.55085,-5.18953 -2.70758,0.0346 -4.92664,1.19207 -5.68141,5.20543 z"
       id="path15" /><path
       style="font-weight:800;font-size:52.9673px;font-family:Dosis;-inkscape-font-specification:'Dosis Ultra-Bold';display:inline;opacity:1;fill:#30ae4a;fill-opacity:1;stroke:#106c1f;stroke-width:0.396875;stroke-linecap:round;stroke-linejoin:round;stroke-dasharray:none;stroke-opacity:1;paint-order:normal"
       d="m 96.064964,211.83047 c -0.609731,-4e-5 -0.922334,-0.34935 -0.921997,-0.85995 l 0.02379,-36.03598 c 4.9e-4,-0.74154 -0.04235,-1.0713 0.810978,-1.06811 l 5.216915,0.0195 c 0.91537,0.003 0.77808,0.1704 0.81452,0.91088 l -0.0599,20.41813 8.36437,-10.59677 c 0.42373,-0.42374 0.68379,-0.77675 1.31939,-0.77354 l 5.69921,0.0288 c 0.83365,0.004 1.21719,1.17127 0.68009,1.7922 l -8.49604,9.88653 9.1086,14.86143 c 0.27795,0.4535 -0.16448,1.48842 -0.69443,1.41272 l -5.80439,-0.0285 c -0.18408,-9e-4 -0.53684,-0.23396 -0.6589,-0.43336 l -6.42278,-10.49262 -3.12497,3.29368 0.0224,6.77913 c 10e-4,0.41561 -0.28758,0.88578 -0.85009,0.88574 z"
       transform="scale(1.0426656,0.95908029)"
       id="path14" /><path
       style="font-weight:800;font-size:52.9673px;font-family:Dosis;-inkscape-font-specification:'Dosis Ultra-Bold';display:inline;opacity:1;fill:#30ae4a;fill-opacity:1;stroke:#106c1f;stroke-width:0.396875;stroke-linecap:round;stroke-linejoin:round;stroke-dasharray:none;stroke-opacity:1;paint-order:normal"
       d="m 83.516292,211.77706 c -0.397405,1.2e-4 -0.780309,-0.18784 -0.780246,-0.82347 l 0.0036,-36.39351 c 3.7e-5,-0.37469 0.318037,-0.74796 0.616595,-0.74752 l 5.552618,0.008 c 0.372582,5.6e-4 0.622265,0.32058 0.62224,0.71693 l -0.0023,36.50002 c -3e-5,0.47712 -0.224865,0.73776 -0.628257,0.73789 z"
       transform="scale(1.0426656,0.95908029)"
       id="path27" /><path
       d="m 57.830801,181.70689 c -0.526169,1.08938 -0.134384,1.87382 0.515717,2.08281 l 4.039316,1.29853 c 0.48798,0.15688 1.251262,0.0243 1.803977,-0.87945 1.224814,-2.00278 3.756648,-2.86005 6.506156,-2.2416 1.901841,0.42778 3.36748,2.02107 3.262299,4.85156 -2.029992,4.2e-4 -6.150076,0.14712 -8.171645,0.37201 -3.006292,0.33443 -6.040021,1.54983 -7.930904,4.11791 -1.604446,2.17905 -1.500242,4.68417 -0.778789,7.20495 0.84928,2.9674 4.462204,4.85819 6.697461,5.21644 4.394897,0.70437 7.337232,-0.24908 10.46082,-3.99865 l 0.08108,2.32549 c 0.02123,0.60879 0.417578,1.12814 0.972969,1.13076 l 4.569954,0.0216 c 0.701288,0.003 0.983534,-0.54741 0.986045,-1.24608 l 0.06098,-16.96896 c 0.0082,-2.28361 -1.352819,-5.78237 -4.511721,-7.61114 -3.84029,-2.22325 -10.434647,-2.39011 -14.839474,0.23032 -1.555888,0.9256 -3.058031,2.71418 -3.724241,4.0935 z m 16.349521,9.87936 c -0.04644,4.38257 -1.917604,5.95812 -5.547519,6.63118 -4.531099,0.84016 -5.338402,-3.15548 -4.106221,-4.8776 1.936222,-2.7061 6.568059,-1.29518 9.65374,-1.75358 z"
       style="font-weight:800;font-size:52.9673px;font-family:Dosis;-inkscape-font-specification:'Dosis Ultra-Bold';display:inline;opacity:1;fill:#30ae4a;fill-opacity:1;stroke:#106c1f;stroke-width:0.396875;stroke-linecap:round;stroke-linejoin:round;stroke-dasharray:none;stroke-opacity:1;paint-order:normal"
       id="path33" /><path
       style="font-weight:800;font-size:52.9673px;font-family:Dosis;-inkscape-font-specification:'Dosis Ultra-Bold';display:inline;opacity:1;fill:#30ae4a;fill-opacity:1;stroke:#106c1f;stroke-width:0.396875;stroke-linecap:round;stroke-linejoin:round;stroke-dasharray:none;stroke-opacity:1;paint-order:normal"
       d="m 40.536195,211.80738 c -0.810231,0.004 -1.171234,-0.61123 -1.170953,-1.3497 l 0.01114,-29.28203 -8.490361,-0.0121 c -0.776857,-10e-4 -1.117572,-0.46736 -1.118595,-1.07598 l -0.0084,-5.0046 c -0.0015,-0.88421 0.429781,-1.31453 1.312563,-1.31062 l 24.634728,0.10903 c 0.670923,0.003 1.317967,0.51606 1.308589,1.18405 l -0.06745,4.80417 c -0.01091,0.77678 -0.526376,1.31404 -1.263186,1.31344 l -9.02533,-0.007 -0.01114,29.25781 c -3.23e-4,0.84747 -0.448304,1.34534 -1.324182,1.3497 z"
       transform="scale(1.0426656,0.95908029)"
       id="text1" /></g></svg>
