<?xml version="1.0" encoding="UTF-8" standalone="no"?>
<!-- Created with Inkscape (http://www.inkscape.org/) -->

<svg
   width="213.71979mm"
   height="63.028503mm"
   viewBox="0 0 213.71979 63.028504"
   version="1.1"
   id="svg1"
   xml:space="preserve"
   xmlns="http://www.w3.org/2000/svg"
   xmlns:svg="http://www.w3.org/2000/svg"><defs
     id="defs1" /><g
     id="layer12"
     style="display:inline"
     transform="translate(-30.821804,-166.4713)"><g
       id="layer9"
       style="display:inline"><g
         id="layer11"
         style="display:inline;opacity:1"><path
           style="font-weight:800;font-size:52.9673px;font-family:Dosis;-inkscape-font-specification:'Dosis Ultra-Bold';display:inline;opacity:1;fill:#fd738d;fill-opacity:1;stroke:#cd5870;stroke-width:0.396875;stroke-dasharray:none;stroke-opacity:1;paint-order:normal"
           d="m 238.07147,203.17735 c -0.41436,1.2e-4 -0.8136,-0.18015 -0.81353,-0.78977 l 0.004,-34.9043 c 4e-5,-0.35936 0.33161,-0.71735 0.6429,-0.71693 l 5.78953,0.008 c 0.38847,5.4e-4 0.64881,0.30747 0.64878,0.6876 l -0.002,35.00645 c -4e-5,0.45759 -0.23446,0.70757 -0.65507,0.70769 z"
           id="path13" /><path
           style="font-weight:800;font-size:52.9673px;font-family:Dosis;-inkscape-font-specification:'Dosis Ultra-Bold';display:inline;opacity:1;fill:#fd738d;fill-opacity:1;stroke:#cd5870;stroke-width:0.396875;stroke-dasharray:none;stroke-opacity:1"
           d="m 207.71646,189.71452 c -0.0636,-8.88477 6.22884,-14.37697 14.46462,-13.90503 7.34214,0.42073 10.36533,4.95877 11.26063,6.99005 0.38634,0.87654 -0.10873,1.47018 -0.60805,1.62433 l -4.07805,1.25897 c -0.64197,0.19819 -1.06683,-0.12405 -1.55584,-0.78979 -4.07935,-5.55399 -12.40112,-2.98355 -12.41904,4.55992 -0.0205,8.61971 9.31062,9.65914 12.53285,5.34499 0.46242,-0.61912 1.30486,-0.6929 1.9454,-0.45493 l 3.74528,1.39143 c 0.63819,0.2371 0.77164,1.04976 0.49694,1.60904 -1.79007,3.64449 -6.20308,6.06605 -11.50979,6.38231 -5.06294,0.30174 -14.19645,-3.04194 -14.27495,-14.01129 z"
           id="path29" /><path
           d="m 201.67761,195.38549 c -1.12084,0 -2.05518,0.38484 -2.80241,1.15445 -0.74723,0.73616 -1.12086,1.63966 -1.12086,2.71043 0,1.03731 0.37363,1.94082 1.12086,2.71043 0.74723,0.76962 1.68157,1.15445 2.80241,1.15445 1.05292,0 1.95287,-0.38483 2.7001,-1.15445 0.78118,-0.76961 1.17202,-1.67312 1.17202,-2.71043 0,-1.07077 -0.39084,-1.97427 -1.17202,-2.71043 -0.74723,-0.76961 -1.64718,-1.15445 -2.7001,-1.15445 z"
           style="font-weight:800;font-size:52.9673px;font-family:Dosis;-inkscape-font-specification:'Dosis Ultra-Bold';display:inline;opacity:1;fill:#fd738d;stroke:#cd5870;stroke-width:0.396875;stroke-dasharray:none;stroke-opacity:1"
           id="path12" /></g><g
         id="layer10"
         style="display:inline;opacity:1"><path
           style="font-weight:800;font-size:52.9673px;font-family:Dosis;-inkscape-font-specification:'Dosis Ultra-Bold';display:inline;opacity:1;fill:#30ae4a;fill-opacity:1;stroke:#106c1f;stroke-width:0.396875;stroke-linecap:round;stroke-linejoin:round;stroke-dasharray:none;stroke-opacity:1;paint-order:normal"
           d="m 183.32225,204.02014 c -3.24478,0.1201 -9.439,-1.27828 -11.52474,-6.66087 -0.24073,-0.62125 0.0181,-1.22636 0.72569,-1.48892 l 3.66469,-1.35979 c 0.71194,-0.26417 1.48858,0.19059 1.95656,0.7825 0.92054,1.16432 2.80038,3.56151 7.56679,2.61475 3.21645,-0.63889 3.177,-4.41861 -0.77758,-4.85261 -8.32005,-0.9131 -12.49138,-3.62449 -12.41331,-9.04497 0.0826,-5.73721 5.85338,-8.26041 10.11256,-8.43449 6.24386,-0.25521 9.36598,2.62966 11.06198,5.35635 0.56871,0.91432 0.40824,1.7742 -0.32439,2.08107 l -3.40754,1.42727 c -0.50243,0.21045 -1.42661,0.0815 -1.90459,-0.6342 -2.31479,-3.46624 -8.24342,-3.52264 -8.40784,0.27774 -0.079,1.82495 2.7057,2.00217 5.48044,2.55312 7.03727,1.39732 10.00311,3.93509 9.85137,8.8179 -0.21121,6.79643 -7.00335,8.39279 -11.66009,8.56515 z"
           id="path26" /><path
           style="font-weight:800;font-size:52.9673px;font-family:Dosis;-inkscape-font-specification:'Dosis Ultra-Bold';display:inline;opacity:1;fill:#30ae4a;fill-opacity:1;stroke:#106c1f;stroke-width:0.396875;stroke-linecap:round;stroke-linejoin:round;stroke-dasharray:none;stroke-opacity:1;paint-order:normal"
           d="m 154.90653,203.10975 c -0.52026,-3.7e-4 -0.8719,-0.30946 -0.87209,-0.83229 l -0.009,-24.95233 c -2.3e-4,-0.64689 0.40386,-1.14829 1.06649,-1.14672 l 5.17508,0.0122 c 0.54021,0.001 0.94917,0.34359 0.96744,1.06032 l 0.0708,2.77719 c 0.32046,-0.46115 1.60799,-2.27317 2.67653,-2.97739 1.25758,-0.8288 3.48767,-1.16571 5.25173,-1.16581 0.70065,-4e-5 1.11607,0.46719 1.11604,1.12239 l -1.9e-4,4.76043 c -2e-5,0.40656 -0.38927,1.13907 -1.1797,1.16191 -1.74756,0.0505 -4.17156,-0.28748 -5.36228,0.47891 -1.19535,0.76937 -2.55923,2.46332 -2.557,6.4602 l 0.007,12.3854 c 2.8e-4,0.49549 -0.29161,0.85981 -0.65927,0.85955 z"
           id="path24" /><path
           style="font-weight:800;font-size:52.9673px;font-family:Dosis;-inkscape-font-specification:'Dosis Ultra-Bold';display:inline;opacity:1;fill:#30ae4a;fill-opacity:1;stroke:#106c1f;stroke-width:0.396875;stroke-linecap:round;stroke-linejoin:round;stroke-dasharray:none;stroke-opacity:1;paint-order:normal"
           d="m 127.32683,180.05032 c 5.67164,-5.98365 16.16391,-5.82085 20.79036,1.19411 1.9888,3.01556 1.97536,7.14359 2.03712,9.11873 0.0231,0.73766 -0.3854,1.39944 -1.17455,1.39896 l -17.67332,-0.0109 c 0.1037,1.84115 1.2082,5.00405 4.30773,5.56799 3.09954,0.56395 5.57848,0.59077 7.95175,-1.81562 0.41288,-0.41866 1.10045,-0.52032 1.58753,-0.2597 l 3.09958,1.65843 c 0.517,0.27662 0.71335,0.8879 0.34487,1.57989 -2.52093,4.73419 -10.08155,7.44013 -17.78852,3.58932 -7.70697,-3.85082 -8.98147,-16.21979 -3.48255,-22.02121 z m 4.15869,6.64163 11.23226,-0.0159 c -0.38223,-3.95348 -2.84328,-5.22409 -5.55085,-5.18953 -2.70758,0.0346 -4.92664,1.19207 -5.68141,5.20543 z"
           id="path15" /><path
           style="font-weight:800;font-size:52.9673px;font-family:Dosis;-inkscape-font-specification:'Dosis Ultra-Bold';display:inline;opacity:1;fill:#30ae4a;fill-opacity:1;stroke:#106c1f;stroke-width:0.396875;stroke-linecap:round;stroke-linejoin:round;stroke-dasharray:none;stroke-opacity:1;paint-order:normal"
           d="m 96.064964,211.83047 c -0.609731,-4e-5 -0.922334,-0.34935 -0.921997,-0.85995 l 0.02379,-36.03598 c 4.9e-4,-0.74154 -0.04235,-1.0713 0.810978,-1.06811 l 5.216915,0.0195 c 0.91537,0.003 0.77808,0.1704 0.81452,0.91088 l -0.0599,20.41813 8.36437,-10.59677 c 0.42373,-0.42374 0.68379,-0.77675 1.31939,-0.77354 l 5.69921,0.0288 c 0.83365,0.004 1.21719,1.17127 0.68009,1.7922 l -8.49604,9.88653 9.1086,14.86143 c 0.27795,0.4535 -0.16448,1.48842 -0.69443,1.41272 l -5.80439,-0.0285 c -0.18408,-9e-4 -0.53684,-0.23396 -0.6589,-0.43336 l -6.42278,-10.49262 -3.12497,3.29368 0.0224,6.77913 c 10e-4,0.41561 -0.28758,0.88578 -0.85009,0.88574 z"
           transform="scale(1.0426656,0.95908029)"
           id="path14" /><path
           style="font-weight:800;font-size:52.9673px;font-family:Dosis;-inkscape-font-specification:'Dosis Ultra-Bold';display:inline;opacity:1;fill:#30ae4a;fill-opacity:1;stroke:#106c1f;stroke-width:0.396875;stroke-linecap:round;stroke-linejoin:round;stroke-dasharray:none;stroke-opacity:1;paint-order:normal"
           d="m 83.516292,211.77706 c -0.397405,1.2e-4 -0.780309,-0.18784 -0.780246,-0.82347 l 0.0036,-36.39351 c 3.7e-5,-0.37469 0.318037,-0.74796 0.616595,-0.74752 l 5.552618,0.008 c 0.372582,5.6e-4 0.622265,0.32058 0.62224,0.71693 l -0.0023,36.50002 c -3e-5,0.47712 -0.224865,0.73776 -0.628257,0.73789 z"
           transform="scale(1.0426656,0.95908029)"
           id="path27" /><path
           d="m 57.830801,181.70689 c -0.526169,1.08938 -0.134384,1.87382 0.515717,2.08281 l 4.039316,1.29853 c 0.48798,0.15688 1.251262,0.0243 1.803977,-0.87945 1.224814,-2.00278 3.756648,-2.86005 6.506156,-2.2416 1.901841,0.42778 3.36748,2.02107 3.262299,4.85156 -2.029992,4.2e-4 -6.150076,0.14712 -8.171645,0.37201 -3.006292,0.33443 -6.040021,1.54983 -7.930904,4.11791 -1.604446,2.17905 -1.500242,4.68417 -0.778789,7.20495 0.84928,2.9674 4.462204,4.85819 6.697461,5.21644 4.394897,0.70437 7.337232,-0.24908 10.46082,-3.99865 l 0.08108,2.32549 c 0.02123,0.60879 0.417578,1.12814 0.972969,1.13076 l 4.569954,0.0216 c 0.701288,0.003 0.983534,-0.54741 0.986045,-1.24608 l 0.06098,-16.96896 c 0.0082,-2.28361 -1.352819,-5.78237 -4.511721,-7.61114 -3.84029,-2.22325 -10.434647,-2.39011 -14.839474,0.23032 -1.555888,0.9256 -3.058031,2.71418 -3.724241,4.0935 z m 16.349521,9.87936 c -0.04644,4.38257 -1.917604,5.95812 -5.547519,6.63118 -4.531099,0.84016 -5.338402,-3.15548 -4.106221,-4.8776 1.936222,-2.7061 6.568059,-1.29518 9.65374,-1.75358 z"
           style="font-weight:800;font-size:52.9673px;font-family:Dosis;-inkscape-font-specification:'Dosis Ultra-Bold';display:inline;opacity:1;fill:#30ae4a;fill-opacity:1;stroke:#106c1f;stroke-width:0.396875;stroke-linecap:round;stroke-linejoin:round;stroke-dasharray:none;stroke-opacity:1;paint-order:normal"
           id="path33" /><path
           style="font-weight:800;font-size:52.9673px;font-family:Dosis;-inkscape-font-specification:'Dosis Ultra-Bold';display:inline;opacity:1;fill:#30ae4a;fill-opacity:1;stroke:#106c1f;stroke-width:0.396875;stroke-linecap:round;stroke-linejoin:round;stroke-dasharray:none;stroke-opacity:1;paint-order:normal"
           d="m 40.536195,211.80738 c -0.810231,0.004 -1.171234,-0.61123 -1.170953,-1.3497 l 0.01114,-29.28203 -8.490361,-0.0121 c -0.776857,-10e-4 -1.117572,-0.46736 -1.118595,-1.07598 l -0.0084,-5.0046 c -0.0015,-0.88421 0.429781,-1.31453 1.312563,-1.31062 l 24.634728,0.10903 c 0.670923,0.003 1.317967,0.51606 1.308589,1.18405 l -0.06745,4.80417 c -0.01091,0.77678 -0.526376,1.31404 -1.263186,1.31344 l -9.02533,-0.007 -0.01114,29.25781 c -3.23e-4,0.84747 -0.448304,1.34534 -1.324182,1.3497 z"
           transform="scale(1.0426656,0.95908029)"
           id="text1" /></g></g><g
       id="layer13"
       style="display:inline"><g
         id="layer15"
         style="display:inline;opacity:1"><path
           style="font-weight:bold;font-size:14.1111px;font-family:Corbel;-inkscape-font-specification:'Corbel Bold';display:inline;opacity:1;fill:#3088b1;fill-opacity:1;stroke:#175073;stroke-width:0.193365;stroke-dasharray:none;stroke-opacity:1"
           d="m 174.96912,223.99406 0.72479,0.40174 c 0.13889,0.077 0.20576,0.23655 0.11147,0.44069 -0.49002,1.06091 -2.48473,1.93064 -4.42466,0.79445 -1.42684,-0.83569 -1.6652,-2.98411 -1.42374,-4.41016 0.37525,-2.21621 2.72219,-3.37535 4.65614,-2.25662 1.34102,0.77575 1.59377,2.11575 1.55599,3.5113 -0.004,0.16386 -0.17945,0.41559 -0.35579,0.41505 l -4.00724,-0.0123 c -0.16681,-5.2e-4 -0.23345,0.11636 -0.23286,0.2398 0.002,0.49559 0.26135,1.09069 0.85489,1.3806 0.66362,0.32415 1.55292,0.16983 2.12377,-0.41133 0.13698,-0.13946 0.26208,-0.17923 0.41724,-0.0932 z m -3.18643,-2.45698 2.5989,0.0193 c 0.13046,7.6e-4 0.20009,-0.0634 0.17981,-0.20365 -0.11543,-0.79881 -0.6702,-1.31818 -1.44061,-1.32977 -0.7999,-0.012 -1.42985,0.51493 -1.51825,1.30936 -0.0106,0.0952 0.12042,0.20424 0.18015,0.20469 z"
           id="path40"
           transform="matrix(1.425957,0,0,1.31299,-16.635156,-71.529673)" /><path
           style="font-weight:bold;font-size:14.1111px;font-family:Corbel;-inkscape-font-specification:'Corbel Bold';display:inline;opacity:1;fill:#3088b1;fill-opacity:1;stroke:#175073;stroke-width:0.193365;stroke-dasharray:none;stroke-opacity:1"
           d="m 152.606,218.48891 c 1.08818,0.12285 1.92986,1.22695 1.93104,2.20725 l 0.006,4.98221 c 2.3e-4,0.18761 -0.12425,0.32723 -0.27048,0.3263 l -1.15708,-0.007 c -0.12446,-7.9e-4 -0.28615,-0.10099 -0.28563,-0.31972 l 0.01,-4.20568 c 0.002,-0.64246 -0.49953,-1.19803 -1.40483,-1.19741 -0.93915,6.4e-4 -1.36214,0.83177 -1.36222,1.37967 l -5.9e-4,4.11273 c -3e-5,0.17031 -0.0675,0.27303 -0.23304,0.2689 l -1.24854,-0.0312 c -0.14058,-0.004 -0.25475,-0.14021 -0.25479,-0.27114 l -0.002,-6.79073 c -4e-5,-0.12712 0.0839,-0.23804 0.22352,-0.23859 l 1.34793,-0.005 c 0.12268,-4.9e-4 0.19502,0.12512 0.19765,0.24277 l 0.0146,0.65332 c 0.002,0.10357 0.11814,0.12765 0.15678,0.0106 0.23686,-0.71749 1.25647,-1.23869 2.33166,-1.1173 z"
           id="path38"
           transform="matrix(1.425957,0,0,1.31299,-16.635156,-71.529673)" /><g
           id="layer19"><path
             id="path43"
             style="opacity:1;fill:#3088b1;fill-opacity:1;stroke:#175073;stroke-width:0.264583;stroke-dasharray:none;stroke-opacity:1"
             d="m 213.02265,212.74153 a 1.4552083,1.4386719 0 0 1 -1.45521,1.43867 1.4552083,1.4386719 0 0 1 -1.4552,-1.43867 1.4552083,1.4386719 0 0 1 1.4552,-1.43867 1.4552083,1.4386719 0 0 1 1.45521,1.43867 z" /><path
             style="font-weight:bold;font-size:14.1111px;font-family:Corbel;-inkscape-font-specification:'Corbel Bold';display:inline;opacity:1;fill:#3088b1;fill-opacity:1;stroke:#175073;stroke-width:0.264583;stroke-dasharray:none;stroke-opacity:1"
             d="m 210.21032,225.15428 v -9.25408 c 0,-0.12618 0.10426,-0.19511 0.25515,-0.19511 h 2.12413 c 0.20275,0 0.28303,0.0922 0.28303,0.20381 v 9.26569 c 0,0.10036 -0.1112,0.16085 -0.26624,0.16085 h -2.13672 c -0.14364,0 -0.25935,-0.0753 -0.25935,-0.18116 z"
             id="path42" /></g><path
           style="font-weight:bold;font-size:14.1111px;font-family:Corbel;-inkscape-font-specification:'Corbel Bold';display:inline;opacity:1;fill:#3088b1;fill-opacity:1;stroke:#175073;stroke-width:0.193365;stroke-dasharray:none;stroke-opacity:1"
           d="m 155.89645,225.88794 v -9.9715 c 0,-0.13597 0.072,-0.21024 0.17621,-0.21024 h 1.46699 c 0.14003,0 0.19547,0.0994 0.19547,0.21961 v 9.98401 c 0,0.10813 -0.0768,0.17331 -0.18387,0.17331 h -1.47569 c -0.0992,0 -0.17911,-0.0811 -0.17911,-0.19519 z"
           id="path41"
           transform="matrix(1.425957,0,0,1.31299,-16.635156,-71.529673)" /><path
           style="font-weight:bold;font-size:14.1111px;font-family:Corbel;-inkscape-font-specification:'Corbel Bold';display:inline;opacity:1;fill:#3088b1;fill-opacity:1;stroke:#175073;stroke-width:0.264583;stroke-dasharray:none;stroke-opacity:1"
           d="m 220.81819,215.34408 c 1.5517,0.1613 2.75189,1.61097 2.75358,2.8981 l 0.009,6.54159 c 3.3e-4,0.24633 -0.17717,0.42965 -0.38569,0.42843 l -1.64995,-0.009 c -0.17747,-0.001 -0.40803,-0.1326 -0.40729,-0.41979 l 0.0143,-5.52202 c 0.003,-0.84354 -0.71231,-1.573 -2.00323,-1.57218 -1.33919,8.4e-4 -1.94235,1.0921 -1.94247,1.81149 l -8.4e-4,5.39997 c -4e-5,0.22362 -0.0962,0.35849 -0.3323,0.35306 l -1.78037,-0.041 c -0.20046,-0.005 -0.36326,-0.18409 -0.36332,-0.356 l -0.003,-8.91617 c -6e-5,-0.1669 0.11964,-0.31254 0.31873,-0.31326 l 1.92209,-0.007 c 0.17494,-6.4e-4 0.27809,0.16428 0.28184,0.31876 l 0.0208,0.8578 c 0.003,0.13599 0.16846,0.1676 0.22356,0.0139 0.33775,-0.94206 1.79167,-1.62639 3.32485,-1.46701 z"
           id="path39" /><path
           id="path44"
           style="display:inline;opacity:1;fill:#3088b1;fill-opacity:1;stroke:#175073;stroke-width:0.193365;stroke-dasharray:none;stroke-opacity:1"
           d="m 142.54681,215.86444 a 4.6386971,5.2141252 0 0 0 -4.6387,5.21412 4.6386971,5.2141252 0 0 0 4.6387,5.21413 4.6386971,5.2141252 0 0 0 4.6387,-5.21413 4.6386971,5.2141252 0 0 0 -4.6387,-5.21412 z m 0.0116,1.96474 a 2.7252348,3.3249491 0 0 1 2.72523,3.32495 2.7252348,3.3249491 0 0 1 -2.72523,3.32495 2.7252348,3.3249491 0 0 1 -2.72524,-3.32495 2.7252348,3.3249491 0 0 1 2.72524,-3.32495 z"
           transform="matrix(1.425957,0,0,1.31299,-16.635156,-71.529673)" /></g><g
         id="layer14"
         transform="matrix(1.425957,0,0,1.31299,-16.635156,-71.529673)"
         style="display:inline;opacity:1;fill:#043448;fill-opacity:1;stroke:#0c1f26;stroke-width:0.193365;stroke-dasharray:none;stroke-opacity:1"><g
           id="layer18"
           style="opacity:1;fill:#043448;fill-opacity:1;stroke:#0c1f26;stroke-width:0.193365;stroke-dasharray:none;stroke-opacity:1"><path
             style="font-weight:bold;font-size:14.1111px;font-family:Corbel;-inkscape-font-specification:'Corbel Bold';opacity:1;fill:#043448;fill-opacity:1;stroke:#0c1f26;stroke-width:0.264583;stroke-dasharray:none;stroke-opacity:1"
             d="m 171.58213,221.59463 c -0.93393,-0.24727 -2.30213,-0.25097 -3.69915,-1.12022 -1.18444,-0.73698 -1.04856,-2.83468 -0.54313,-3.57227 0.93187,-1.35989 2.2506,-1.56106 3.67331,-1.58724 1.52018,-0.028 2.8016,1.22059 3.21931,1.88857 0.1128,0.26058 0.0937,0.4058 -0.0962,0.58191 l -1.079,0.54356 c -0.19965,0.10057 -0.42148,0.0833 -0.65134,-0.12648 -0.58248,-0.53166 -0.89352,-1.03057 -1.8775,-1.02574 -1.232,-0.13569 -1.87134,1.4541 -0.67601,1.99462 1.68273,0.58939 2.71725,0.22669 3.9134,1.17147 1.10164,0.82804 1.32061,2.92572 0.14012,4.13222 -1.11585,1.14044 -3.55558,1.34242 -5.15713,0.68597 -1.24905,-0.51197 -1.37381,-0.82514 -1.89819,-1.70001 -0.10276,-0.17144 -0.0338,-0.51235 0.14059,-0.60281 l 1.20983,-0.62747 c 0.25824,-0.13394 0.42289,-3.8e-4 0.54623,0.1719 0.33634,0.46979 1.11265,1.37257 2.38557,1.2073 1.77025,-0.22983 1.17154,-1.82407 0.44932,-2.01528 z"
             id="path37"
             transform="matrix(0.70128343,0,0,0.76162043,11.665959,54.47846)" /><g
             id="layer20"
             style="display:inline;opacity:1;fill:#043448;fill-opacity:1;stroke:#0c1f26;stroke-width:0.193365;stroke-dasharray:none;stroke-opacity:1"><path
               style="font-weight:bold;font-size:14.1111px;font-family:Corbel;-inkscape-font-specification:'Corbel Bold';display:inline;opacity:1;fill:#043448;fill-opacity:1;stroke:#0c1f26;stroke-width:0.193365;stroke-dasharray:none;stroke-opacity:1"
               d="m 126.51913,215.76241 -0.86664,1.24062 a 0.58643083,0.58643083 149.22028 0 1 -0.4144,0.24683 l -0.72564,0.0826 a 0.14277501,0.14277501 55.151744 0 1 -0.14359,-0.20623 l 0.77815,-1.54051 a 0.36995766,0.36995766 152.37075 0 1 0.38134,-0.1996 l 0.88025,0.1228 a 0.16215433,0.16215433 66.439291 0 1 0.11053,0.25346 z"
               id="path64" /><path
               style="font-weight:bold;font-size:14.1111px;font-family:Corbel;-inkscape-font-specification:'Corbel Bold';display:inline;opacity:1;fill:#043448;fill-opacity:1;stroke:#0c1f26;stroke-width:0.193365;stroke-dasharray:none;stroke-opacity:1"
               d="m 126.54112,223.99406 0.72479,0.40174 c 0.13889,0.077 0.20576,0.23655 0.11147,0.44069 -0.49002,1.06091 -2.48473,1.93064 -4.42466,0.79445 -1.42684,-0.83569 -1.6652,-2.98411 -1.42374,-4.41016 0.37525,-2.21621 2.72219,-3.37535 4.65614,-2.25662 1.34102,0.77575 1.59377,2.11575 1.55599,3.5113 -0.004,0.16386 -0.17945,0.41559 -0.35579,0.41505 l -4.00724,-0.0123 c -0.16681,-5.2e-4 -0.23345,0.11636 -0.23286,0.2398 0.002,0.49559 0.26135,1.09069 0.85489,1.3806 0.66362,0.32415 1.55292,0.16983 2.12377,-0.41133 0.13698,-0.13946 0.26208,-0.17923 0.41724,-0.0932 z m -3.18643,-2.45698 2.5989,0.0193 c 0.13046,7.6e-4 0.20009,-0.0634 0.17981,-0.20365 -0.11543,-0.79881 -0.6702,-1.31818 -1.44061,-1.32977 -0.7999,-0.012 -1.42985,0.51493 -1.51825,1.30936 -0.0106,0.0952 0.12042,0.20424 0.18015,0.20469 z"
               id="path36" /></g><path
             style="font-weight:bold;font-size:14.1111px;font-family:Corbel;-inkscape-font-specification:'Corbel Bold';opacity:1;fill:#043448;fill-opacity:1;stroke:#0c1f26;stroke-width:0.193365;stroke-dasharray:none;stroke-opacity:1"
             d="m 118.41577,225.88794 v -9.9715 c 0,-0.13597 0.072,-0.21024 0.17621,-0.21024 h 1.46699 c 0.14003,0 0.19547,0.0994 0.19547,0.21961 v 9.98401 c 0,0.10813 -0.0768,0.17331 -0.18387,0.17331 h -1.47569 c -0.0992,0 -0.17911,-0.0811 -0.17911,-0.19519 z"
             id="path32" /><path
             style="font-weight:bold;font-size:14.1111px;font-family:Corbel;-inkscape-font-specification:'Corbel Bold';opacity:1;fill:#043448;fill-opacity:1;stroke:#0c1f26;stroke-width:0.193365;stroke-dasharray:none;stroke-opacity:1"
             d="m 115.14588,224.87021 c -0.84721,1.67584 -3.89208,0.85377 -4.43878,-1.18477 -0.27179,-1.01343 -0.51115,-2.73388 0.6054,-4.24217 1.13846,-1.53789 3.48347,-1.12844 3.87301,0.11263 0.0582,0.18534 0.28136,0.12492 0.28263,-0.0595 l 0.003,-0.44271 c 10e-4,-0.16471 0.0826,-0.29695 0.2361,-0.29633 l 1.09467,0.004 c 0.15569,6.4e-4 0.24256,0.0728 0.24263,0.2769 l 0.002,6.71525 c 5.1e-4,1.61772 -1.43134,3.06199 -2.4176,3.30422 -1.49617,0.36747 -2.99609,-0.18453 -3.74351,-1.08774 -0.12437,-0.1503 -0.11267,-0.47359 -0.01,-0.57092 l 0.66981,-0.63351 c 0.17721,-0.16761 0.39933,-0.13023 0.52993,0.0437 0.57279,0.76276 1.53633,1.06799 2.4338,0.54754 0.60714,-0.3521 0.90189,-1.10461 0.99458,-2.38431 0.0159,-0.21981 -0.24521,-0.3259 -0.35806,-0.10267 z m -1.32849,-0.72643 c 1.03993,-0.005 1.63934,-0.97747 1.65787,-1.9893 0.0185,-1.01184 -0.50081,-2.0855 -1.65007,-2.06948 -1.14926,0.016 -1.67335,1.15123 -1.65339,2.04756 0.02,0.89633 0.60567,2.01632 1.64559,2.01122 z"
             id="path62" /><path
             style="font-weight:bold;font-size:14.1111px;font-family:Corbel;-inkscape-font-specification:'Corbel Bold';opacity:1;fill:#043448;fill-opacity:1;stroke:#0c1f26;stroke-width:0.193365;stroke-dasharray:none;stroke-opacity:1"
             d="m 107.33231,218.48891 c 1.08818,0.12285 1.92986,1.22695 1.93104,2.20725 l 0.006,4.98221 c 2.3e-4,0.18761 -0.12425,0.32723 -0.27048,0.3263 l -1.15708,-0.007 c -0.12446,-7.9e-4 -0.28615,-0.10099 -0.28563,-0.31972 l 0.01,-4.20568 c 0.002,-0.64246 -0.49953,-1.19803 -1.40483,-1.19741 -0.93915,6.4e-4 -1.36214,0.83177 -1.36222,1.37967 l -5.9e-4,4.11273 c -3e-5,0.17031 -0.0675,0.27303 -0.23304,0.2689 l -1.24854,-0.0312 c -0.14058,-0.004 -0.25475,-0.14021 -0.25479,-0.27114 l -0.002,-6.79073 c -4e-5,-0.12712 0.0839,-0.23804 0.22352,-0.23859 l 1.34793,-0.005 c 0.12268,-4.9e-4 0.19502,0.12512 0.19765,0.24277 l 0.0146,0.65332 c 0.002,0.10357 0.11814,0.12765 0.15678,0.0106 0.23686,-0.71749 1.25647,-1.23869 2.33166,-1.1173 z"
             id="path61" /><path
             style="font-weight:bold;font-size:14.1111px;font-family:Corbel;-inkscape-font-specification:'Corbel Bold';opacity:1;fill:#043448;fill-opacity:1;stroke:#0c1f26;stroke-width:0.193365;stroke-dasharray:none;stroke-opacity:1"
             d="m 99.620499,225.91228 v -9.62689 c 0,-0.11169 0.07213,-0.19291 0.172326,-0.19291 h 1.342925 c 0.12336,0 0.18609,0.0894 0.18609,0.21485 v 9.60123 c 0,0.0942 -0.0983,0.19064 -0.1725,0.19064 h -1.377118 c -0.09019,0 -0.151723,-0.0597 -0.151723,-0.18692 z"
             id="path60" /></g><g
           id="layer17"
           style="fill:#043448;fill-opacity:1;stroke:#0c1f26;stroke-width:0.193365;stroke-dasharray:none;stroke-opacity:1"><path
             style="font-weight:bold;font-size:14.1111px;font-family:Corbel;-inkscape-font-specification:'Corbel Bold';opacity:1;fill:#043448;fill-opacity:1;stroke:#0c1f26;stroke-width:0.193365;stroke-dasharray:none;stroke-opacity:1"
             d="m 94.10329,223.99406 0.724798,0.40174 c 0.138889,0.077 0.205756,0.23655 0.111469,0.44069 -0.490022,1.06091 -2.484732,1.93064 -4.424657,0.79445 -1.426852,-0.83569 -1.665204,-2.98411 -1.423746,-4.41016 0.37525,-2.21621 2.722193,-3.37535 4.656137,-2.25662 1.341022,0.77575 1.593772,2.11575 1.555993,3.5113 -0.0042,0.16386 -0.179444,0.41559 -0.355789,0.41505 l -4.007245,-0.0123 c -0.166801,-5.2e-4 -0.233444,0.11636 -0.232855,0.2398 0.0021,0.49559 0.261355,1.09069 0.854886,1.3806 0.663624,0.32415 1.552929,0.16983 2.123774,-0.41133 0.136981,-0.13946 0.262076,-0.17923 0.417235,-0.0932 z m -3.186421,-2.45698 2.598893,0.0193 c 0.13046,7.6e-4 0.20009,-0.0634 0.179816,-0.20365 -0.115431,-0.79881 -0.670202,-1.31819 -1.440611,-1.32977 -0.799905,-0.012 -1.429854,0.51493 -1.518251,1.30936 -0.01059,0.0952 0.120417,0.20424 0.180153,0.20469 z"
             id="path35" /><path
             style="font-weight:bold;font-size:14.1111px;font-family:Corbel;-inkscape-font-specification:'Corbel Bold';opacity:1;fill:#043448;fill-opacity:1;stroke:#0c1f26;stroke-width:0.193365;stroke-dasharray:none;stroke-opacity:1"
             d="m 86.137946,222.15198 c -0.0436,-1.23319 -0.624468,-2.03705 -1.716719,-2.02521 -0.96797,0.0105 -1.757063,0.75948 -1.731816,2.18837 0.02296,1.2992 0.763896,2.17573 1.771535,2.16016 1.095951,-0.0169 1.727277,-0.9013 1.677,-2.32332 z m -5.166412,0.39399 c -0.0026,-1.43949 0.15812,-2.34701 1.271309,-3.37693 1.01978,-0.9435 2.779737,-0.76594 3.536881,0.0866 0.14486,0.16311 0.320688,0.12865 0.317634,-0.0878 l -0.04962,-3.51705 1.711429,-0.006 -0.0033,10.48523 -1.648903,0.005 0.0055,-0.87455 c 0.01976,-0.15482 -0.117708,-0.22397 -0.214174,-0.0939 -0.73185,0.98672 -2.255836,1.15248 -3.400139,0.47249 -1.14219,-0.67873 -1.524326,-1.81554 -1.52662,-3.09304 z"
             id="path58" /></g><g
           id="layer16"
           transform="matrix(0.70128343,0,0,0.76162043,11.665959,54.47846)"
           style="fill:#043448;fill-opacity:1;stroke:#0c1f26;stroke-width:0.264583;stroke-dasharray:none;stroke-opacity:1"><path
             style="font-weight:bold;font-size:14.1111px;font-family:Corbel;-inkscape-font-specification:'Corbel Bold';opacity:1;fill:#043448;fill-opacity:1;stroke:#0c1f26;stroke-width:0.264583;stroke-dasharray:none;stroke-opacity:1"
             d="m 90.652554,221.59463 c -0.933932,-0.24727 -2.302138,-0.25097 -3.69915,-1.12022 -1.184441,-0.73698 -1.048564,-2.83468 -0.543131,-3.57227 0.931867,-1.35989 2.250596,-1.56106 3.673306,-1.58724 1.520178,-0.028 2.801604,1.22059 3.219314,1.88857 0.112796,0.26058 0.09368,0.4058 -0.09623,0.58191 l -1.079004,0.54356 c -0.199651,0.10057 -0.421479,0.0833 -0.651337,-0.12648 -0.582481,-0.53166 -0.893526,-1.03057 -1.877502,-1.02574 -1.232,-0.13569 -1.871335,1.4541 -0.676006,1.99462 1.682725,0.58939 2.717251,0.22669 3.9134,1.17147 1.101637,0.82804 1.320608,2.92572 0.140119,4.13222 -1.115852,1.14044 -3.555583,1.34242 -5.157134,0.68597 -1.249047,-0.51197 -1.37381,-0.82514 -1.898192,-1.70001 -0.102753,-0.17144 -0.03382,-0.51235 0.140596,-0.60281 l 1.209827,-0.62747 c 0.258242,-0.13394 0.422891,-3.8e-4 0.546229,0.1719 0.336337,0.46979 1.112649,1.37257 2.385575,1.2073 1.770244,-0.22983 1.171534,-1.82407 0.449315,-2.01528 z"
             id="path55" /><path
             style="font-weight:bold;font-size:14.1111px;font-family:Corbel;-inkscape-font-specification:'Corbel Bold';opacity:1;fill:#043448;fill-opacity:1;stroke:#0c1f26;stroke-width:0.264583;stroke-dasharray:none;stroke-opacity:1"
             d="m 82.842067,222.57228 1.033529,0.52748 c 0.198042,0.10107 0.2934,0.3106 0.15895,0.57863 -0.698756,1.39296 -3.543123,2.53491 -6.30937,1.0431 -2.034629,-1.09725 -2.374513,-3.91811 -2.030205,-5.79049 0.535089,-2.90987 3.881734,-4.4318 6.639448,-2.96292 1.912248,1.01855 2.272655,2.77795 2.218779,4.6103 -0.0063,0.21515 -0.255877,0.54567 -0.507333,0.54496 l -5.714158,-0.0162 c -0.237855,-6.7e-4 -0.332888,0.15278 -0.332046,0.31486 0.0034,0.6507 0.372677,1.43207 1.219031,1.81271 0.946302,0.42561 2.214409,0.22299 3.028413,-0.54007 0.195326,-0.1831 0.373709,-0.23532 0.594962,-0.1224 z m -4.543703,-3.22599 3.705906,0.0254 c 0.186028,0.001 0.285318,-0.0832 0.256415,-0.26739 -0.1646,-1.04883 -0.95568,-1.73076 -2.054249,-1.74598 -1.140631,-0.0158 -2.038913,0.6761 -2.164963,1.71918 -0.0151,0.125 0.171706,0.26817 0.256891,0.26876 z"
             id="path56" /><path
             style="font-weight:bold;font-size:14.1111px;font-family:Corbel;-inkscape-font-specification:'Corbel Bold';opacity:1;fill:#043448;fill-opacity:1;stroke:#0c1f26;stroke-width:0.264583;stroke-dasharray:none;stroke-opacity:1"
             d="m 71.302611,221.59463 c -0.933932,-0.24727 -2.302138,-0.25097 -3.69915,-1.12022 -1.184441,-0.73698 -1.048564,-2.83468 -0.543131,-3.57227 0.931867,-1.35989 2.250596,-1.56106 3.673306,-1.58724 1.520178,-0.028 2.801604,1.22059 3.219314,1.88857 0.112796,0.26058 0.09368,0.4058 -0.09623,0.58191 l -1.079004,0.54356 c -0.199651,0.10057 -0.421479,0.0833 -0.651337,-0.12648 -0.582481,-0.53166 -0.893526,-1.03057 -1.877502,-1.02574 -1.232,-0.13569 -1.871335,1.4541 -0.676006,1.99462 1.682725,0.58939 2.717251,0.22669 3.9134,1.17147 1.101637,0.82804 1.320608,2.92572 0.140119,4.13222 -1.115852,1.14044 -3.555583,1.34242 -5.157134,0.68597 -1.249047,-0.51197 -1.37381,-0.82514 -1.898192,-1.70001 -0.102753,-0.17144 -0.03382,-0.51235 0.140596,-0.60281 l 1.209827,-0.62747 c 0.258242,-0.13394 0.422891,-3.8e-4 0.546229,0.1719 0.336337,0.46979 1.112649,1.37257 2.385575,1.2073 1.770244,-0.22983 1.171534,-1.82407 0.449315,-2.01528 z"
             id="path34" /><path
             style="font-weight:bold;font-size:14.1111px;font-family:Corbel;-inkscape-font-specification:'Corbel Bold';opacity:1;fill:#043448;fill-opacity:1;stroke:#0c1f26;stroke-width:0.264583;stroke-dasharray:none;stroke-opacity:1"
             d="m 57.732487,224.88107 c -1.476999,-1.03545 -1.91057,-3.19259 -0.07909,-4.76435 1.111498,-0.95388 2.54812,-0.63554 5.03795,-0.5693 0.341954,-2.92615 -2.963308,-2.50922 -3.678406,-1.47694 -0.148292,0.21407 -0.371061,0.33423 -0.559504,0.26074 L 57.145188,217.821 c -0.212073,-0.0827 -0.366123,-0.30595 -0.203245,-0.53938 0.713198,-1.02213 1.4597,-1.89414 3.767094,-1.95771 2.546542,-0.0702 4.281129,1.44237 4.287041,3.76336 l 0.01507,5.91634 c 0.01357,0.26966 -0.125234,0.35147 -0.325241,0.33325 l -1.606186,-0.006 c -0.279722,0.0124 -0.376061,-0.13631 -0.340032,-0.28052 l 0.04029,-0.96947 c -1.595448,1.74157 -3.92667,1.58595 -5.047492,0.8002 z m 4.842767,-3.80608 c -1.102061,0.0221 -2.105092,-0.32845 -3.18256,0.15269 -0.81644,0.36458 -0.814271,1.8308 -0.0323,2.22052 1.463647,0.72944 2.677327,-0.1988 3.165244,-1.25318 l 0.04961,-1.12007 z"
             id="path54" /><path
             style="font-weight:bold;font-size:14.1111px;font-family:Corbel;-inkscape-font-specification:'Corbel Bold';opacity:1;fill:#043448;fill-opacity:1;stroke:#0c1f26;stroke-width:0.264583;stroke-dasharray:none;stroke-opacity:1"
             d="m 52.268515,225.05893 v -13.09248 c 0,-0.17853 0.102604,-0.27604 0.251276,-0.27604 h 2.091862 c 0.199673,0 0.278726,0.13052 0.278726,0.28835 v 13.1089 c 0,0.14197 -0.109519,0.22755 -0.26219,0.22755 h -2.104263 c -0.141519,0 -0.255411,-0.10642 -0.255411,-0.25628 z"
             id="path53" /><path
             style="font-weight:bold;font-size:14.1111px;font-family:Corbel;-inkscape-font-specification:'Corbel Bold';opacity:1;fill:#043448;fill-opacity:1;stroke:#0c1f26;stroke-width:0.264583;stroke-dasharray:none;stroke-opacity:1"
             d="m 41.615946,218.71108 c 0.0484,5.34756 5.709345,4.9593 7.207734,3.1145 0.177484,-0.21852 0.524837,-0.34611 0.795738,-0.19301 l 0.98329,0.55572 c 0.264782,0.14965 0.249103,0.53468 0.132245,0.70198 -1.635933,2.34213 -4.20354,2.76393 -6.855009,2.37535 -1.880141,-0.27554 -4.827093,-2.39262 -4.892139,-6.20936 -0.08597,-5.04429 3.468842,-6.73985 5.580733,-6.94688 2.775839,-0.27212 4.747526,0.77576 6.127792,2.25523 0.195188,0.20922 0.226234,0.59154 -0.0398,0.7864 l -1.039262,0.76122 c -0.188825,0.13831 -0.585069,0.12383 -0.752229,-0.11217 -1.774507,-2.50536 -7.293708,-2.01763 -7.249096,2.91103 z"
             id="text27" /></g></g></g></g></svg>
